<mxfile host="app.diagrams.net" agent="Mozilla/5.0 (Macintosh; Intel Mac OS X 10_15_7) AppleWebKit/605.1.15 (KHTML, like Gecko) Version/17.5 Safari/605.1.15" version="27.0.1">
  <diagram name="第 1 页" id="cg6ItZnG26OR3nAv8xu3">
    <mxGraphModel dx="541" dy="358" grid="1" gridSize="10" guides="1" tooltips="1" connect="1" arrows="1" fold="1" page="1" pageScale="1" pageWidth="827" pageHeight="1169" math="0" shadow="0">
      <root>
        <mxCell id="0" />
        <mxCell id="1" parent="0" />
        <mxCell id="f1L2penVRJWSfhdc41cq-1" style="edgeStyle=orthogonalEdgeStyle;rounded=0;orthogonalLoop=1;jettySize=auto;html=1;exitX=0;exitY=0;exitDx=70;exitDy=51.5;exitPerimeter=0;entryX=0;entryY=0.25;entryDx=0;entryDy=0;curved=1;" edge="1" parent="1" source="f1L2penVRJWSfhdc41cq-3" target="f1L2penVRJWSfhdc41cq-8">
          <mxGeometry relative="1" as="geometry" />
        </mxCell>
        <mxCell id="f1L2penVRJWSfhdc41cq-2" value="&lt;font style=&quot;font-size: 10px;&quot;&gt;yaml 模版&lt;/font&gt;" style="edgeLabel;html=1;align=center;verticalAlign=middle;resizable=0;points=[];" vertex="1" connectable="0" parent="f1L2penVRJWSfhdc41cq-1">
          <mxGeometry x="-0.0307" y="-1" relative="1" as="geometry">
            <mxPoint as="offset" />
          </mxGeometry>
        </mxCell>
        <mxCell id="f1L2penVRJWSfhdc41cq-3" value="&lt;div&gt;部署模版&lt;br&gt;&lt;div&gt;&amp;lt;template&amp;gt;&lt;/div&gt;&lt;/div&gt;" style="shape=note;whiteSpace=wrap;html=1;backgroundOutline=1;darkOpacity=0.05;size=23;" vertex="1" parent="1">
          <mxGeometry x="265" y="260" width="70" height="80" as="geometry" />
        </mxCell>
        <mxCell id="f1L2penVRJWSfhdc41cq-4" style="edgeStyle=orthogonalEdgeStyle;rounded=0;orthogonalLoop=1;jettySize=auto;html=1;curved=1;" edge="1" parent="1" source="f1L2penVRJWSfhdc41cq-6" target="f1L2penVRJWSfhdc41cq-8">
          <mxGeometry relative="1" as="geometry" />
        </mxCell>
        <mxCell id="f1L2penVRJWSfhdc41cq-5" value="&lt;font style=&quot;font-size: 10px;&quot;&gt;配置信息&lt;/font&gt;" style="edgeLabel;html=1;align=center;verticalAlign=middle;resizable=0;points=[];" vertex="1" connectable="0" parent="f1L2penVRJWSfhdc41cq-4">
          <mxGeometry x="-0.0263" relative="1" as="geometry">
            <mxPoint as="offset" />
          </mxGeometry>
        </mxCell>
        <mxCell id="f1L2penVRJWSfhdc41cq-6" value="&lt;div style=&quot;line-height: 160%;&quot;&gt;&lt;div style=&quot;line-height: 160%;&quot;&gt;硬件架构&lt;/div&gt;&lt;/div&gt;" style="shape=note;whiteSpace=wrap;html=1;backgroundOutline=1;darkOpacity=0.05;size=22;" vertex="1" parent="1">
          <mxGeometry x="265" y="360" width="70" height="80" as="geometry" />
        </mxCell>
        <mxCell id="f1L2penVRJWSfhdc41cq-16" style="edgeStyle=orthogonalEdgeStyle;rounded=0;orthogonalLoop=1;jettySize=auto;html=1;entryX=0;entryY=0.5;entryDx=0;entryDy=0;" edge="1" parent="1" source="f1L2penVRJWSfhdc41cq-8" target="f1L2penVRJWSfhdc41cq-15">
          <mxGeometry relative="1" as="geometry" />
        </mxCell>
        <mxCell id="f1L2penVRJWSfhdc41cq-8" value="渲染引擎" style="rounded=1;whiteSpace=wrap;html=1;" vertex="1" parent="1">
          <mxGeometry x="396" y="380" width="80" height="40" as="geometry" />
        </mxCell>
        <mxCell id="f1L2penVRJWSfhdc41cq-11" value="&lt;div style=&quot;line-height: 160%;&quot;&gt;&lt;div style=&quot;line-height: 160%;&quot;&gt;模型信息&lt;/div&gt;&lt;/div&gt;" style="shape=note;whiteSpace=wrap;html=1;backgroundOutline=1;darkOpacity=0.05;size=22;" vertex="1" parent="1">
          <mxGeometry x="265" y="460" width="70" height="80" as="geometry" />
        </mxCell>
        <mxCell id="f1L2penVRJWSfhdc41cq-12" style="edgeStyle=orthogonalEdgeStyle;rounded=0;orthogonalLoop=1;jettySize=auto;html=1;entryX=0;entryY=0.75;entryDx=0;entryDy=0;curved=1;exitX=1.003;exitY=0.478;exitDx=0;exitDy=0;exitPerimeter=0;" edge="1" parent="1" source="f1L2penVRJWSfhdc41cq-11" target="f1L2penVRJWSfhdc41cq-8">
          <mxGeometry relative="1" as="geometry">
            <mxPoint x="345" y="530" as="sourcePoint" />
            <mxPoint x="410" y="490" as="targetPoint" />
            <Array as="points">
              <mxPoint x="370" y="498" />
              <mxPoint x="370" y="410" />
            </Array>
          </mxGeometry>
        </mxCell>
        <mxCell id="f1L2penVRJWSfhdc41cq-14" value="部署模型信息" style="edgeLabel;html=1;align=center;verticalAlign=middle;resizable=0;points=[];" vertex="1" connectable="0" parent="f1L2penVRJWSfhdc41cq-12">
          <mxGeometry x="0.1184" y="-1" relative="1" as="geometry">
            <mxPoint as="offset" />
          </mxGeometry>
        </mxCell>
        <mxCell id="f1L2penVRJWSfhdc41cq-15" value="k8s&lt;br&gt;api server" style="rounded=1;whiteSpace=wrap;html=1;align=center;" vertex="1" parent="1">
          <mxGeometry x="500" y="380" width="80" height="40" as="geometry" />
        </mxCell>
        <mxCell id="f1L2penVRJWSfhdc41cq-17" value="" style="aspect=fixed;sketch=0;html=1;dashed=0;whitespace=wrap;verticalLabelPosition=bottom;verticalAlign=top;fillColor=#2875E2;strokeColor=#ffffff;points=[[0.005,0.63,0],[0.1,0.2,0],[0.9,0.2,0],[0.5,0,0],[0.995,0.63,0],[0.72,0.99,0],[0.5,1,0],[0.28,0.99,0]];shape=mxgraph.kubernetes.icon2;prIcon=api" vertex="1" parent="1">
          <mxGeometry x="580" y="376" width="50" height="48" as="geometry" />
        </mxCell>
        <mxCell id="f1L2penVRJWSfhdc41cq-18" value="" style="shape=image;verticalLabelPosition=bottom;labelBackgroundColor=default;verticalAlign=top;aspect=fixed;imageAspect=0;image=data:image/png,iVBORw0KGgoAAAANSUhEUgAAAWAAAAE0CAYAAAASfumtAAAAAXNSR0IArs4c6QAAAIRlWElmTU0AKgAAAAgABQESAAMAAAABAAEAAAEaAAUAAAABAAAASgEbAAUAAAABAAAAUgEoAAMAAAABAAIAAIdpAAQAAAABAAAAWgAAAAAAAACQAAAAAQAAAJAAAAABAAOgAQADAAAAAQABAACgAgAEAAAAAQAAAWCgAwAEAAAAAQAAATQAAAAAUpaylAAAAAlwSFlzAAAWJQAAFiUBSVIk8AAAQABJREFUeAHsvQdwXNl5Lvh3zgiNSBAgwATmnMnJ40maIM0oWJIle72W7X1B3q3n2tp9Yatcr+rVvt16W6+e1+vaervlfV57bUuyZFmyLXmUZjSRwyGHw+EwgAlEzkA3Osf9vtNoAiBBEqHDbeCcmWYHdN977nfu/c5///P/3y+im0ZAI6AR0AiUBQFTFq0se9Y71QhoBDQCaxwB8xo/fn34GgGNgEagbAhoAi4b9HrHGgGNwFpHQBPwWj8D9PFrBDQCZUNAE3DZoNc71ghoBNY6Ata1DoA+fmMjkMYScTSRkXgqI+lMVlJ45JeNLWaT8GGzmMRtN4sdz7ppBCoJAU3AlTRaa7Cvw8GknOmOyKXBqEyEkzIRSkg0lRaz1SRVDps0eG2yod4ux9o9sq3BKTarvqlbg6dJxR6yDkOr2KFbvR3vnkjIJ30RuTwUlR687p1MyFgoBUs4LRE8UjCLTRYRh8UiHrtFqj0WaakCEfttsqnRIYdaPdLZ5BKHJuPVe5KskiPTBLxKBrLSDyMcz0gY5No7GZf3bkXkZ5cD8lFPWMbDKTHhP7oZTPAwqAfei+RcEfBISAY+iXgqKx6nSTY32uW57TVyarNPtje7pMZlFY/DrFwVlY6R7v/qQ0AT8Oob04o7omRc5I1rYfnbi8Mg36AEIiaJJ7PK50uCJd8+yLurMonwD8nZAg+EBS9q3RZYwU55ZV+tPLGtSlpr7BWHi+7w6kdAE/DqH2PDHuHlwYh83BeST/qjcnUoJVeGwzIYjEsmk7NYrVhgI6kutpGIMxmRZDojZvy22mmRLXBJ0B1Ba/hwm0f2rHfBUtZ+4sViqr9XXAQ0ARcXX731uxAIRNMyFUtL93hc3rkWkJ9dnZILAxFJJM1iNZnvuBru+tmS3+bIOCsxWNJWuC/WwQJ+dlu1PL7VK7vbnFLtskmV0wo/8ZI3rX+gESgYApqACwal3tDDEJgOZ+X1KxPyw08n5MztsERiIgn4bpWb4WE/XubfScQ0opV7Av+4HSIb6izy/J5meRa+4j3rbMvcsv6ZRmDlCGgCXjmGegsPQAD8Kh8ijOxCT0guwdK9NhaX62MxGQ0lsY6WczXQb7sET8MD9nb/P5Hkkwwqloy47CbpqPfAPWGXHc12ObDBIwfafNLo0ebw/RHUfykGApqAi4HqGt8meW4inJaJSEpujCbkp4hoeOfalHQNRxC7YFEuAUY1lKvRT8zEDpM5I/U+s5zcQtdEtRze4JU6kHCd2ypOW/n6Vy5c9H5Lj4Am4NJjvur32BvIyg8/npSfwN1woW9akknTvAw2IwFA14QZ9rfNlpUWv1We2VErL+30g4zdxTfLjQSE7ktZENAEXBbYV99OYwmRd7un5FxPRD7tj8vNMSZQxGQykhQzFtcYGkZXg9EaXRNMcWYsMRLrpLXWKZvq4JpodMpeWMRH2n3SBmLWTSNQDAQ0ARcD1TWyTfpUx5AePBTIyLWRhPzk6qicvhGSbrgdLGBbRh8wlKxSGslYLQpm0oiSMMuRjTnXxFGkOTdVW6UB2XZe+I910wgUCgFNwIVCco1th+nAN7GY9jefTMDVEMQCW0xM8K1m+VglWHDuMJmz0lhtkye2+uXFPX45ucklSK7TTSNQEAQ0ARcExrWzkXEsrr1zY1rOMqphGFoN4wkZnEpIIJoRGxiL6mQVZPTed+CouKbU1/DCDuGf5iqHtNXaZSsSO/ZvcMixTTWyvQExbbppBFaAgCbgFYC3Vn4aRTLD6HRSieJQleznsHg/7A1LL4jXCbalDCSJd7U2knEC2XVJRE54oSuxr90lJ2ERH2mvko4ak6yHhVylzeLVOvxFPS5NwEWFt/I3Hklk5dOhmHzvo0n5ZVdAbo4ie2KNN0ZOpOBo8SNk7VSHRz4HvYlHt1ZJDcLXdNMILAUBTcBLQWsNfbdnPC1v35yAqyEs14aTShaSyROReFpZu0vVaVgt0NG/ncFqXRIPYlDvtSLN2QYVNqfsa3HLo1t80Jtwrwo3zGoZMyMfhyZgI49OifsWjKVkBK6GW2NJudAbl19cH4dQTkTGghnlB6Uv1EzzTzeFAF0TrNARgWvCiYocOxtdioCPbvTIxnqnUmDzQ5XNbMDwOz2ExkBAE7AxxqHsvZhC1tqZ7mkV1fD+zYgMTKZUOIPm26UNDaNDquGKOIAY4ld2Qwpzq09a66xLUnVb2h71tysZAU3AlTx6Beg7F9V+eS0I8fOI3IJCWR8W1iZBxtTjVTXXwMCahBcHNJM5GBtN3KqxKNfks0kHkjp2tdrl8c21cqDVK27n4ralv7U2ENAEvDbGed5RssrEYCAp17GgxqoTb3QF5epwTEJxhFwhooE6Das4qGEeFsV4Q9cEQ9iiSbpuRNrrbXJyYw3q1lXJtnVWhLM5pMFnBc7aN1EM/Ctpm5qAK2m0VtBXLh7RezuK2mpvXgvJdz/CAtvtkAQjaZU4oQl3BeAu4qd0TTCEbSsU2F7eWytP76iGSLxerFsEdKv6K5qAV/XwzhxcWqC/G8Wi2oScRwWK/smMDEwlJQBhdK7ok3xZQUIvrxXnZADEarGOOHuwWNeAyIk2v12VTHq8s0qOduRU2Iqzd71VIyOgCdjIo7OCvtHiHZyKyzBcDV3DcfmgOypvXJ+UG2NRyaQtKN8OVwNJV7PuClBe2k85JpzwWKWDkRGNcEOc2ORVBLwLIWxtfgcy7mwgaT0oS0O2cr+tCbhyx27BntPaoinLFOGfXUb1iYu0eiMSjdPfqH27C4JWpg85VGm4Jhw2s7Qgzfn5XbV4VMNX7FILefQl6wmyTINTot1qAi4R0KXYTQKSkG/fDMDSDaDYZQTWb1pGgkmZRvJEjnw1AZdiHBa7j/xiHSdMu9UMMXibrKu2yKYGZNgh1fnkpmrZ5LcsdnP6exWIgCbgChy0uV1GDoDcRvjYwGRCupAyfBoLa+91B+X2RFxMWbgaZiQhtSU1FzXjvaZrIo76TVAmFq/LJIfaa5Rr4kCbQ9rhmmDkBKs867a6ENAEXIHjmfclJjMm+HQT8oPzk/LTS+NyBWXek6izZgLbcsFHt8pEIO+asFohhVllkidRpeOFXX55ZGOVOFU2onZNVObI3ttrTcD3YmL4T8YiIr+4GoQs5JRcAumOwtUwAWH0SCKtyFcTsOGH8IEdzE+wfLbB6KXID+OGVTzx5ip5YgukMJu0FOYDQayQP2oCrpCBSiAz+DqY99Z4Ui4PxuX0rTAW16ZVpIMNS+qVVn2iQmAveze5qMoqHWko3bvAuXuQTXeMpZJaPdJWD/dEnQOCQNo1UfaBWmYHNAEvE7hS/Ewt0uCfSNykQsm+e2FI3rgclOvDCVRqYAiZdjWUYhyMsg/lmgAj46KVWrdZHu3MuSYehwKbzwVrecY9YZT+6n48HAFNwA/HqGzfGEAc74+voKT7jbBcxgJbAG4GZq4xjpSLalQm47NuawMBEjAnZWpOgGtBulap9VhQSNQux1C/7snt1XIEi3a6VQ4CmoANNlbTMRa4jMHdEIV/NyofIKrh4kAU4WQpcVlyUQ1aQsBgg1aG7tA1wfTmRAZ6E6jmvL3JKwfhmjjY5pbNCGPbAmnMFiR16GZsBDQBG2B88reWY9Bp+KQ/Kn9zfkLeujmNULKEOGDisqS7tnQNMFAG7QLPH4axManD5zTJ0S1ueW5Xgzze6Zd1XhE3eJjuKt2Mh4AmYAOMSSQpCCUblZ/Av/txX0yC0GgIIXkigQtKkS/6qK8fAwyUgbtAizgL1wTDD90Q/WHM8Aa/U56CW+KF3TXSCREg3YyHgC5iVcYxoeVyARbvz64G5G08zvdFZQiuBidSU5lAQa0G3TQCi0FAnSqYpekjDqJC9dh0CqJLCTWZDyEb8vFOnzyGEDa3dhEvBs6SfUcTcMmgnr8jWrc9cDH8xZkR+X/eG5FMCqVrcAFVu3RI0Xyk9LulIMA7JTV5Y72AZHwBKelcSzhzOyw+mx0Zdk6UT1rKFvV3i4mAdkEUE937bJsXxjWIof8vr/fJ29dDMhnKKB8d7V3targPaPrjZSFA1wQfXocJ+sNW+a2TLfKFg36caMvanP5RgRHQFnCBAV3M5q6g+sS3zk4o8h0KILrBatHEuxjg9HeWjEDeixWOZ+Rcb0QaL0xIjdOG9GavUlxb8gb1DwqKgCbggsL58I3RGnkLVu+fnx6TcCyL3H5Nvg9HTX9jJQiQhLO4tUpnbIgpn4arK4M6dR1QXtO+iJXgWojf6qJUhUBxkdug3/fHnwblrWvTEkDhS5Jx3kJZ5Cb01zQCy0KAHges68pEJCMXBhLyxrWIDGGhTrfyIqAJuIT4M6f/J1em5GxPSC2QaDdcCcHXu1JuLq4/jIXS8qPLU2odQsNSXgQ0AZcQ/wmkEX+Emmw9kzG1Uq0X3EoIvt6VQsAB4fdEOiPv3AyqjEsNS3kR0ARcIvynQL6f9IUlHKWYirZ9SwS73s1dCHDSR/ayTKBWYD/CIINIfadVrFt5ENCLcCXCfSiYkHM9YWj2ZsSqHb9LRp3+8jT+IVlQjIbv+Zo1JHLP8zeZn+IINdNwSTyMs6aOhk7tBn4gYdYNvIwY4YMb3OqObD6C+l0pENAEXAqUsY+R6SR0HsJQMsvo8J9FYA5unWOZISUbTOqCOjnuoO9oH/OzPLGq55nt5n/LZ5I21j7VcxK33kn44XkLTgJnMKwiapL0zG/XwhOPGsE30ge1vYv9Edmz3qUJuEwDrwm4RMAHYgnpngih7lfOEivRbityN7Ro86RJArXaMqpg5fZGt7QgdKqt1gYhchukGG3ic9ghNoNS7k5BSB+sW/wWC/0K50QiK6MQ2hiFjCeLk94epaxnSK4iCSaAqiJplHRiujet4rUm7ck7g/HpOKzgMHBAYoZuZUFAE3CJYJ8KiwxMwQJLm3Xo2QKY0yKlvGIa7GsBi7aCZDfWOSEo45Y2vxXEa5V6j12JzNS4LeKHDq7bboFuRs4qXmCT9E9IKGmXMISNpiFwNBFyyUjIJ4Mg4yGUceqbSGJBNC638aASXSyeRXViWIczlvWC21wNH4J8UTlQRnFXxoKuupUPAU3ARcae1lwKVu/YdAYLHiZx4NaPt3+65RDI+W/pYhDxQMWrCloY9VVmOdDqksPtPtm7nvXPbA91EZDAqQZGZwIqNOW+D6LxItfAC6Ju8gH0BiYeQJ8RLQRf/FWI3J/vDcvHg2H1ug/lnkjWrE5My3u1WsXK3YJ/prAgPICJiOsSPl1xWZ0Xpf5HE3CREeeC0bWxmAwEY6vfsloGlklFdCix48rKiS0eeXo7qv9uqhY/rNycqMyMn/YB2w7HSKiQ70ylxQy3ghuuiWqU6AEP37d57Gbl+9ze7JRfzdZJz1RM3u+elr89OwkBmygSFmgNzyzY3XcrlfsHkjDmGQnC6u+Balqd16oXh8swnJqAiww6LbOesaQMQ/OBC0V8rPVGTOhu4KLY1kanHO3wyPGNLulsdsnGBpc0++5NkR2FTCcXjcbCKbWgOQT/ZRh3z/GEYDt4TqeVIDnhtcMt4YCkpwtl3Vktwg2yrYGDuKnKAf+xQzaghI8HwuV2pIbxwbazya2U6NqrHfIpKpB8DBL+oDsMedCksobtMNFX29hxaovh7qxnLAV3T0YX91RnQmn/0QRcZLwVASPekiWFuPCxttbb7wWXeNBFUAt3QxOI9sltVfLSnlo5vtk378uMFgnj1piPAfhqb6BM0+XhiLLWbsJveWM8ItOwUlPp2cKkeYJUbg3sh34ItyMrNXBrNMEXsRmLeLuaPbJ7nUs2wa1RDSvbAQKuQm01EvF6EDQfj0A390NkK/o9VjkDEqZsKPuREzzPEfa8zlboG7p9kqmM3ByNy95WpybgMoyjJuAig04XxPXJsAyEYmrhY/VcvksHjsSYhOVbj4q+j6Bszj99tFk6YXm66Rif02DQKgv0jS4UJEXsdA8IYhqJLPw9F+lgOEs2bUFYGmKAZ85g8i0X3djyREys+ZpVpXuSSDwIBOWd69Nqoc0DF8WGOrscgZ/51b218DO78N3c6NB6PtbhkyN4vHllWr71waT86MokqpRkYE2vnhE0wyKIA8yrIyEsQrpka5NWa1cnUAn/0QRcZLAhPKUyjhgGZTKtvtvYxcBHyuJCD8um715vR72yanluZ43sW++Bn3fWUzsMjLgo9iHEw69ggezmWFx6kbFF4aI4KkGTYZlAYMNZy9pnDVhYq8HikctqRQgafJjYVtaUlTB8ElHE+8XgF47ARcFsrym4Lhjaxq2QaOnfHZtOy/BUWi3A7W5xyQEUtDzR4cViILeVI9oTm73KnbHOb5HXoePxKRIXuD/+OU/0i8HAiN/hImOCFvA4NKmj1Ubs4qrvkybgIg9xCOVhxoOo8QYS8DlnyabIuzXM5kl4KfgdfHADbG5wyEt7vRAEr5cOP0zQmTYNy3IwkJD3IJX400sBoeUbAF6CCYuJF164K5p9ZhAjXAYIIfGCfOvgsciFpiEWGI5eL6o92PC3DAg4kEjKdDQhERA3XMUyDuuZIVfcZgT7isK9wQmBcqCf9sfkLHRy22ANP7LJg1TxlOxa55GGKoS8oc9ejNljnV5pqQXJQ9ScmXfUcM5NCA9fIMwfoxGf6RLjHUkvFuEmgZFupUdAE3ARMY8hEeAGFuBCeAabFHFPxt00/aYxmK2Pb6mWrx1pkCe3euaVXQogguFN6CP/8Rs98PMmJZqAbm3WjPhek4AnJW3OyrpakxyGdXp8o192tHhVjHAVfLs5KzRHggrdGZOU+yTidFmw0e9M98HFgQj0OELI/goj0gFuIYRgZbCvali04XBGfn4pJO9eDcl+lHd/aZ9ffvVQLQg/N26b653yzx5vlsNI2/33/9gDq5mLc5Wt5UwCpjtndNqEGOm1eX7mzpDy/asJuIjYT8IC6xoJK4uL/ra11Hi0XLhiBMILu/3yxQN+eWKrF+Q7exdw+lZYfg5t5LeuB2GJxiWAuFQSAqqZyUZU8d3f5oGPthrJGBZpqbFBQJwLRTYVS/1gLO/Fmla02+7Bar9dTm7yIcwsKV3DCTl7Oyrv356CVQtCRZIMPSJ0gTBOeGQ6Kp/Z5ZedWLQjt3Mx7/jGKvlvn9wgf/7+iPziahBWt7XiXRGcqIahVdI/mZR1wHmNnaoPPpWK/FdNwEUEeAq3s9fGogjsh/7DvZxQxD0Xd9MzhuUDbXq6HUh6JK+vHqpTVXlrZsiXiQ7UIPg2Ym5/DF3a66NR8cJ9UAUXA7PcWqptcqgjV1L9ma21ZOSCtCr4i/nY3IC8ZbRHt2RlW2NIarxZVbhyOAB3ETLixuEvPn1rWnqnIspN8aWDDdJRbxcXFuDolvjc/lq4ONJYuEpgfFPwoyJdukJZi/5wTjoUi7qBFO3GKquYV9PJWpAzp3gb0QRcPGzhc0xD/yGpMqtWiwWsyPchDMxbfpLs8Y0e+epRvzy1zQvim7V8fw7L8b+8O5qzNOEaqEamGgmbVu4zWJz72okm2VCDNGOenbM/K/hIMRb46Z1eeWy7F7G/YfnHi5PyV2cmlGCSFbFyY8Gs/OnpEfm4Pyj/8pl2ZZFDdkK1l/fVigdk/G9+2CODsByt5gLNEgU/yodvkHPHGNYpesdTcnQjqyo//Df6G4VBwPIHaIXZlN7K3QhcHIzId86NyWSYIVSz8ap3f89o78mvGRAiExxo3TEmNwo/dgr+ASxzYTEKamII7+BtOhezSLYkUEYZ8JkCNx241X/tQK28CtdDjTs3z6fwve9fGIPlOy6nb0YQnYAoBaT+1uLvz8NN8eUjdfLinmrphPuB8blcpS9m49apqMaMuwYfXRwU+XHBL5xGvHEEx23C8WUlCGuX2rlMk96CxBE2J0LVqhE/bIOPegQVJnqmEoglpsJC5TWONyNL6qsscmKTV+FReUdRmT3OXRmV2XfD93ocKlzM3kopAR7jX5r0BTLOlrxnB8HU43bdB7cA/bispOCC9Qc9HEQGwMKFrzYQBUEnZ0gaRMxohqloEr8xy2d2V8PyRUox0oLZUggjO3c7JH/2/ihKMsVAashSg6XVXudAJpxXvnK0HgkQHiiblQcnJmJsb3bLpga3VLnRB0wwF/sTcEdkEAaXlb+HdexD/HI9Qt/2rvcpwlqH2/UvHayTURDwIBJt4jh+YljkeaOw5z0OldPGMNwp3ZNRNfEWdgd6aw9CQBPwg9BZ5t9oUUQRg8o40xiSAOhSM1XIbR3jbF1wF6yHBXsC0QCHsBC2vcWt0ncZRmdBmFe+kWxSsOzHcZw3h+NyBpEFF3oDsF4z8punmmQT/Kb5xhI4f3Z6FNEHFLwRFV1gB8m9eqBOfu14o2ypz2Wj5b9frmdOCp/dWyc7W3zyhz+/Lb/sCsvgFFOabfI6/NWhREL+51c6EbbGCAgTlNqc8sLOWgmSpD/JJWtQUa1Smuop/pnCJDI0gUKxuk5nSYdOE3AR4CYxDeBkHkG8qAo/M/j1yGrNcDrAVSByalONHN1UJTvWOZG+a4MOrxW6u0x0yB9E/nkWOG+dFeI5ZmlvtMmTnW64DrKIXMiRL1XFuBDJIpBvXkN0AazEJHwbLfj71442ywtIQ96G33GSMkqjT3QrJo9vPrpeau2j8u1zE/DnC2Jls/JRb1z++O0B+crheljCuVjmI7Dg6e9/8/qETONOoGCrhiUChNBjnRiSnRnpm0zJDiyEIgRbtxIgoAm4CCAzDrV7Iq6EXHgxG4hb5h0tuBG3zFlEH5hhySHsawOsuV11CNOqmheryx+RouPwBStfL3zDfM/Vc7omaPH5EOHgc9nnWb38HUPxfnhhQn55LYRki5T6LrV+H9/qg8+3XtqVRCS/aazGcaPl/7l9dUjkSMnPrk7D1WDCXU1Wvnd+XJqr4C/2O9TiItOTDyA++DBEhd67EUFMLbL+jDSjLAJaWvNR+Oi7EAnRjKQTv7dCbtkWcWxG/oom4CKMDontJkKY+qeh/0ACNqhTkDoVrI+2Z71TPn8QsbqHG+DnXTi7awBxsiMIVQoyuwy+XxKw22WCoI4NiRF2FSN7N5S0fq9DROd7H04hHjquwri4qPfU9mr5xiMNsIJnQgru/qGB3h/GopTLbUNK9DWJ9MDPi5ua8WBG3uoKSQuy5V7eW6MW5PxYkPv60SYJRUbgqkB8cIURMCdThksybn3Xeocm4BKdg5qAiwQ0xb1zEpQLE1qRdrvozYbhCmhG2NfjCMF6FW6AY7iNnrsARhH507eC8lH/tFwfSyhBeabx5uqq5XZDvQQK1/hAxK2wmo5B2OZYR5WKJeU3Lg6G5K8/GpXhaegyYBGuHlbVKSy0PYtQsz3QgWAEQiW0zXBH/PMnWuRP3h6VH18EuSJO6xzU0hha9/i2WhBwTkz+xEafvAdf94WBkPJz059u0Ln3Htg5ETOapRvRHnSn6FYaBDQBFwFnhm/1IjZ0BMSjKMZAPEP/NK3XGvhsD7W75MuH6+RRuBzyurgs3dML//WVwTh8tuPywe0gaqglIG7D0LSZULo5x8PtmcwZJYxzC6nEA3AzHGz3SAss4ze7grh1D6oLm2Rdj88+v9+P+GBfxZAvTw/6v5/f6cdCYwLxwnEI12DBCncEH/dFoCMRht/cAzeOSVX0ONDuBgG75L3rMUmAgSvFEqZEKC3g6ygeQLeRbqVBQBNwEXBmlYEBkO8kyIxJBkZqquYaLM+jEEB/dX+1PL11VgWLZEpBnO9i0el1iOLkDSGHGREKXG8icy/QTAjxgNqj/Bx+0rdhATajftsjINmriIzoHc8oNwxjaCm+/pmd1VKH8K1KbIdxTM+jlPv3z0/KNDCkpfjts8OoU9coJ/E3tn2tXnlye1LO3BxCWjVioivEFZGzgDNyDYVLx5GmrVtpEKjMK6E02CxrL1Ta6h6LSBQXJ6UojdTomyYhNCHL7AuIX/3MLqT5zjSqhf3tx0gN/jQgF5AmHFTuBvwREQ1uyMRuanRJO3y9jUiaYBXiGG5XxxDnzMctWE19uHXl/bYVyQtJ+C9+EpuGBgZEcbBPfvcE9H9fO1Qj1SimWaltX6tHRXG8cW1SlSxiRMdbEO+h6+UwQvZ4F9GGihp7sXjnAmYBqK1VSqOrhDocQVSLHofxwMVZo65dVAqmi+mnJuDFoLSE7wSh/3AT2gZxhCMZzcdJ7dcWRCBwEezk5mpoNeSGXxEJFMm+9eE4FMOQJIHJg5lejUg62IDy750ISduOckEdiJQgAXsg/0hyZbl3VhO+iZXzLuj33kZdNVYcnkJd+EgipaQkGSFBH+mRDjcSM3zQGVgCmAb7KuHajdCzQ3CxUGd4CFrC00g8YXHPW9Au3gK5TY45F+fa622KrFkyiQtcldA4XaCyE9TRkFgCF0tztV3dvVRC3yu1j5qACzxyFP++BQlKWn1Gu/uk9msHEge+dqQJ5JqLQKCF+vqloBLGuQBtXFo+ucw3kxxCWNpr0O59CaFYMwltC6KVheU0ADL67oUh+eHFKSxQxYV1jNPYH0XYO5ttEF93oRLGbGLGghuqgA9ZzPNz+5oQajaC9ORJNVH1wC3xMTSFO5DVR7Ll5MXY4HFUwqbEptEm4vvBTNc++8ryWaxj2IhQu2Kng9+vL2vl8wqZmytnOJiKexV+tChW4oxy4ZFk2VoRt7oHt9HbUXomn1jRj0WzH4E034EkJMPSqM3Q2WSX33+uSf7FMy2oXFH9QPLldhm0v77WAsnJevnXz22Q3396HWQNWak4ocLcXtzTKLuRWbYamhvkegrkuhHuGE5WXLxi7OwZlE7iezYfTOUT0C5urnIqwfNKOW66HOiKGET45A1oYTCKQ7fiIqAt4ALjy4WZa3BBROALNor1QGJlvv82uBH2trpUrC8PezSUlDeuBeU8UoiH4QNmEcpO1EZ7ZkeNfBESkq0oULnohgt3HfyffGxA5WHom0Evdxo+ZyuSLqpRjbjyrV9iQYKq9sDXi7C7Oq8ZkQMmWP+QpRyOQQsj57rxILHlACa6Zoj7mNRCQGXYObSAYQCrBKLuiRhyIzmh8FPdioWAJuACIxtECaIehHFRpIYry0ZoXHxjV1gNmI98u41sve+cG4bgTBKkbFYqZi/vr4Pbwb808s1vcOaZGhD/w6+0yfH2adQbi8q2BtRYqwwOuutI7v+2BVoQ29bZ5dIAol3g8+Yi5gBK+1DZjdrA66pQRqkaAkYITyOP0Tg2yOlw/4NCVxm1Pgppyj5IU2oL+P5QFeovq+yyKBQsy9tOEgsuoyhzE4eEoZEuON5JZjDSO2Dd7sIj30aR0fXJQC7wnrfW1ON9HFUr9rYswfLNb+zuZyy2HUJq7meQ5OE2WCje3V1dzvv2Og9Czmpg4aMQKAY7ikXXCyh1RCLOtzpEfDQh5I7ES1vS6A3dVBbwGOKAWQw1Autet+IioAm4QPjSyuxBFMBAII4L0jjZb5wIKI7jsmexqGIReARUi0Bcpn+KFYeh54uIhlqQBcVl5iqYrRQaFrRswkKO4S2/ZRxoC1wt25rcytql7zSBGK5bsPYDiILJt3q4dNbx+PEBx6FSGjPiplCkcwjnMs9r3YqHgCbgAmHLMpC3pqLQf4grK8IopMPrhxUO6pAu7JgjvUDt1148SA+MYmjwIpUYFisjIHR7OAJ+VToJ5XtmjESKFE2AfLn4mm/0qTf5aAGb1AJn/nOjP9vQ3yTWMG4Mh+FembXojd7vSuyfvtoKNWpgun7qP0zl0o+NEsROy8uOpXq/064qNuQPdwzRGuMz1hqtHJZ83wANYFYj1u3hCFC0qAZhdblxzhUTnQoj6WQOX3ntVuhF4DsP35yhvqHSknFX1I3zmWsauhUPAU3ABcSWK8f9qIDBi9IoFx0tc4bDueEOmFs4MgafJR9s/A7L6dRATtLGq0+3RSHAyh9cXCRi1NOlRgRv3/PNCX8PH7lyTbOf5/9u1GdG78RmdCFYWFa34iGgr7YCYcs0ztsg4IEgCRgbNQ4DqzhdqwWppahflm+4MRY+ZhsmjSwdxHM/m/2rfnUvAi5bVhUO5cRGkp2KJUBcsy4INyzgGtRxYmKGUUIS7z2Kez9hMkkMrpSu0ZB2QdwLT0E/0QRcIDgDEZbmQfIBFreMxb/UZkCCBTL0mGaab6xywQcbJwwW3uQKPvV6dVscArxZ8CCoxI4Q5zRitsLwP1CuM986Gx0q/fqRrW7U0YN4DyzkSljUYvgkMzmvQwWPmiC6FQ8BHQdcAGwhe6BcD9MQX6FkoxEaaZT+X3gnkZFll8e2VGOhbXYVjnn+jFDg9+gwCaOGHRflYimHVBezFrwRwClQHzjSXOCkxUhijTP7cc7wk5h3Qeye1Z5ba13QVw7LJWgkJ3G+sOy9ulMqUF8KuRn2iy6VqTAWFqELoVvxENAWcAGwDcZS0FENq9vPuX7WAmx6+ZsAIZAMmpAQcAoW2K+fbJSO+lxJdW6UPl/7THYEfcRBWG+85YyAiHVbHAKcvO6El+FNIm1CVegcfnRJ8G/ViJZ4cZdf/vtn18s3HuUY2FRlkMXtobzfysKY4KLyCB53jrO8XVp1e9cEXIAhncJK8VWIrkSQgEFrqNwtfxfM2N5vPNoq33yyHSnC85Wt3uqahuB6ULlLHBDMGYWq2Xu3p+8QSLmPoVL2T31lNnjYJRQ1y//19rD86x/cQop3GOnoub/x736EAT4PFbr/8Lmt8lRnDSa/nNVsVJcEDXmG2PWjWvJNELBR+0lsK7lpF0QBRm+aFvBIVJWiN/OsLXOj22EDlLle3V8vr+z1yyZULc436ha8C+Gdv70QkE/6osoFQZU05v2n4Mek5abb4hDgrTpLMhEyRpTwruIiFOVGoafbP2WSmyMRxFa7UX4JlaLhcvB7zPLIVhcqJzeIFZPeTy9P4JwheRvPHcFj45nMZIweLC4f3sDsyPKf24sbmcr51uyVWTl9NlxPScDdeQW0Mjr2aIyRPv1ekzwKt8M3n1on3hkNHOb1D0Gr9x8+nZQ/eqMPFxZoOg39BxCBFzHA62rMchQlihgPrNviEGBF6E4I1Y+jUvJIIAMi5gRmRS3ArPwAlZM/uDGFRTiv/NPHm5WgvZMOY7QXdvnEiyrS/VPTcmUoBQW6nLtocXst1be4MpDFscRQ1QTKaNnZyiml6sFa2I/lD9DWwoEW8xjPD0Tlz86MwwrKVRkuBwfTNknAFIuDBL58uFF+/VgzFLtyabAqRG4sLX/480H589OjEN/JQiwI2Vn4z+vK4vt++d1Hm5TF3FaTExUvJl6rZdsUMDrY5pWTWODcDDH2aRTOo0B9EIuxrDxCd3o/Jr3TPdNSjRjrjjqXWrTj8ddBtGdLg0suQ0XtOuQsSeZGa4xnj6aSUgdh/udRPcUo8qpGw2kl/dEW8ErQw28RvYXim2lUwc0gjhaxtWW6juhGICFsx0VN+cf9kJ3Mt17cQv5/ZybkJ1em5AZCi1wQx6FlvL3Zjfpl1ZCfrIYOhPvOolz+d/r5/gjwTkOpnsG3Tv/6ekhPNvtM0AWOyjkU67w6GAYhZ3HXISjblMJdxpgK7XplTw1em9Xj+MYqEFtUGD1zbQhmMCxOo5Bc3oig0tsQBKYicZPY3ffHQ/9leQhoAl4ebupXvOXvnUyhNE1SJTXwoixX42JQI3QHPgefL6tP5FsY7pH3UF7+Tz8YkklYvlUuK6wtE2QpbfIaKhT/xolmlFnPf1s/LxaBu72h1Dtuq22Qk51J+UXXlHz7TEouD7A8U26L//jpFF4noZVsU1rB1AxmuaaXdvvVndP/MTYEHQm4IhbbgRJ9j3dKAaRYUzmvGoVV88Rcot2v+t2UyV5bPbj2T0RlECpovCDLdXKS+B22DMTUrRBS9+NWd8bxi8//AhWO//O7Y0jEQGwn4k89SEk+hgKZv//cevn6iUZNvgU+FRtRu+llkOp//GKnvHLAL15YjRwfGypH3xiJy7/78W2UbJphZXy+pcGO+nwe2YKyTW5oB+cjWArcrWVvjlE9zO67OR5StQKXvSH9wwUR0AS8ICyL+5AX1m1UA6asY7n0H7gCTzWzjnqHHICaGS0sthhCoD5GlMObCDf7pC+GCxvFMWFx7Wx2yNeOwlLbVKVW8NWX9T8FQ4BBMF64eFjA9CuHGuRLqKlXg+gHK0zbaYQrnu+JyU8uT8E6pssh17Y2OuWlPX6VKMOMRCM1ZsWxAGsXXFf5GGcj9a/S+6IJeIUj2I0qCH0Qr85ZwHffmK5w44v4OcXA6X7Y2+qT4xurYW1xWoDfEeWGfvDxhFxBleMEFgdpnW9BauyvbKuWz0Iknf5i3YqLwIE2t/zW8SY5usmLyBQ6F7DwmbbIT68EEI0yjkW63Fg1wCH/8p56aa9jokzus+L2bPFbZ7p1FJNCF6x3xrvrVlgE9FW4AjxJt/3QAB4IRFWIZDlcEMy7SiCaYVezV461Vd0RfQlg4ef1qxNKIN6Ca98MMZ6vHm2SryE6QrfSIdABF8MfvNgON4NXMiZIleKKuzwYk/duRpTcI10OXLjdWGeTnU02aa3JeYG5vmCExkVBCvN0j4RgwSNoWbeCIqAJeAVwsvrBOILuQxC6URbwCra1nJ/S/eBAuFNbrVPaccsL6VnVj3g8K1cG49I7kZQQojN88Ptug+thfxtKw2OlXrfSIUAf6mYkwpwAAe9CpAnR5y19N+rxvYmEmBHcqbAxbG13q1e2r/OotF8WUjVCU9KU6O/1cW0BF2M8NAEvE1WGffUhqyyIUKM0NADK0dJgYA/8jYdw4a6rng1o+QRxyR/cDqOqgVkpoNVB9ezJTh9qvuWsq3L0da3v8yhK2T8J9w99wYxCoc7uP16exB3KrFW5e70PJO1TTghOrkZo9GnTVTIIQ2MMZYp0KywCmoCXiWcAVu8V6D+E4V8tZ+yvD5lrJ9tBwL7ZWLKzA9Pybk9A+YOZWkwVtJcgCNOCeFXdyoPA/haPPLq5CsL4cDnAHTQJMjuDSXIAFYjzbWejHRWknSq12SgWMPtG88KCGPdhxAMPhZC0bpDJIY9bJT9rAl7m6IUQX3tzOAIBnlTZgud5kbKE0GZcuFTdyrf+8QR0CGI5NS7EbjJGlSmzRsy2yvd5LTy3+x1yaINP6hCqlsDCVghJDgOTcZme0dw1YwgbfEjScGaUqJNRiI5rGyQK6kL0jeO8WguDVaJj1AS8TKCp/3BjBIpXuHjKJcDD21RqOTQj9MzjnCFgGFRTULAKhHOWSgOSM9bX2HFRzxL0Mg9Z/2yFCNRgDB7dVI1CnXZl5bL45cAktBaQqZhvHljIDShlzyQNwxAwOkcSHkK5LfaVkTe6FQYBTcDLxJH5/pfhgghBBQvrJ2VpvA5sWOVpxAXNPpCQe+FTnMKkMBPhJLXQHGDlC6P4FMsClEF2yhTkPchArHFDQW0momsAUo985JsLaYltNV6ECXLMjEF0KsYd51dfAHd9WNg1Rq/yiFX2sybgZY4ffcB9k0lVyqdc9b7glkN4maCUfG4G4MLgFCIg4jPsywul1m1Tt7zLPEz9swIiQHdRK+9W7CDgme1ORVJIEZ8tpcwFugYkbmBt1TCTJs8uaqMNBGPSg6opubOtgMCs4U1pAl7G4JPYxhFnG8RKNiMRyhH/y24r3xxGMC9BTIMpDmNqNp2V2g8WFIacX35zGYesf1IABCzIamApe1WJhIMFJgtjDYGPfLOhcKrPkVvY5XlmhMbzjI8JTBTD8APPrfxshP5Vch80AS9j9OgHo++OMZ7lsn7ZbQae3SOTDR+wac6V68SXUJhXN4MgYLPblDh7vjtRiN3wkW/MPKM4EhM2jNaUMA9kLIaDCRVhY7T+VWJ/DDjMxoexZyKl3A80YWYvndL3m35das6iGrpqnBB8WMSh7neOg00Sxxeicyys0vdS73EuAhwP3jXlm9PK0vaz79PwK8Wp1Zz3UeS/aIBnnuuUXb0+llQSmgboUsV3QRPwEoeQl0ov9R/g/+UJWS73A7vN65guh+BMjj6zqVj2hn7E/PrNJDQOJyKzwf78nW7lQYAx2VNI502w5DBPHIxfNbIU+ci3JMrBBxGeBgGysp5b+f7Mfab+cV4XIjBTfHTu3/XrpSMwO/JL/+2a/UX/ZAQSlHn9h/LZwLyG0zCVJlHROF/LrdZpU7XJOFGwZ2NY5BmBv1q38iOQgHN+GH7UGAg4f+F5MV6+OT4ikvNEOCFJfDf/nfL3PNcDhltGYcHfGp6GLsTswqFR+leJ/TDaGBseQ5JaP6zffqQh83U5LWAuviVhVXFxhJYJmxX+Qypv+ZGYwb7dRl9vjKdU5Q71Bf1P2RCIImvy1mgKt+/QDsHYcJKsxgIpRfLzjYVRp+BTIgEz/MtIjS6uMMIur44kJBCDia7bihHQBLxECCmkwhJELNXCVs5LhAuAtJhYtXZ6zi1hKzLfOlAVmdfvOFJHezlhQDKTF7xu5UOAwkgf90YwYTJ7kpN3VpprbCiIOpsiztT2caQpU3/BYPyrFpypM31zPAkC1mdTIc4kTcBLQJELXtchTB1ArG3WAFcHpQK5KHKhN6z0f/OHQoHvXS1U3jKhEgNLyqTk7ZuTMhrSvuA8RuV4DuC2/d2bE5jA49CDwNjgbmVbswsi+rMEPIoacsMBLK7Ca8Q7HCM19ocTwyiiIPIGiJH6V4l90QS8hFELY8XrFsrP87mc4Wf5LnNRJIxZ4cO+EAo/zvrkduCi3ouinLR5OU8MIzvu+yiTPoD6dbqVBwGKmX/cH0fWGwpcwsr1QkRpc70TQkmz7oebo3EUTY3Ar49BM8AEfz+kmOczgqSMCawvaDv4figt7nNNwIvDSX0rBL/X9ZEoCDitbiGX8NOifJUWSQyr5jfG4srFkN9JG7SBd7Y4pRmaAm6kv1J56zQEwM/3hCWqbx3zMJX0mcpnb14NShTVhWnd1sLvS12IRijV5dulwZBcGQopy9do1m++jyQMpr33IxKoBxrBmoHzyCzvWRPwEnCjatVV6j/ABWGE8uE0khhulkiY5dpoDHn60Tvpq5tR3ubprR7IVFpVSFMqZZYffjIhP7w4toQj1l8tBAJcH/3l1Un5+WVin1Vj1Fxlk1f31krrHInQq0NR6RrORdcY4Q5roWPnOcdHH/QrurG4qy3ghVBa/GeagBePlUoZvT4WUs8sVmiExguVPfngZkh+cTl4x2+4rtohXz7UJJuwGJdKw3mNK+VcT1T+7mJA3u2eVtETRuj/au9DGIujf/LesLx9YxoxwKhMDTLeXG+Tw+0u6Wx2imNGx2MUCnaXhhJyCwtcHE+DnF73DE8uMsOkKoH3QRdCm8D3QLSkDzQBLwGuIMKHGH7GkC+j3CLyQqU1fgnFN9++FsICT87P68KFfWyjR05t9slWFOOEOKUM429nbkfkO+fG5Ux3WOf0L2Hsl/NVunvevDYtf/XBKO5Q4li4NSMNOYOK1F55eluVeF25y48uoreuT6vClyH4h9mMMb3fe9RqcsDHg5Cm7FMymkbt6b19N+InmoAXOyq4LiamGVFgMlSWkrog8E8AizxXUbn2l9exIBeaWWzD6L56sFZ+9Wi9mJEdR2uLNez++oMp+b/fHpM3ukKLPXr9vaUiAEv32x9Nyn96c0SuD6eQEs5SRFmp9Yo8h+okT22rubPFHoic/7/vDsGvGoeynbEvSU74fAyhkscA5Cm1BXxnGJf1YnYJdlk/Xzs/6sPqdc9UTPnvyqsAsTDmjIgYRHjQt84OQU+2TepnVtc3o8TN8ztqEQmRlR9dnITfLoYVeJF3cUs8jQy6G2PT8swOv2zF93QrDAKXh+LyfZDvL7oCcmU4phZKmUG2q8Uhv/1Yo6qQbJrRx+fEea43Kp+iUjLjhI2wtrAYFJgANIm+9yCypt1vM6zFvphjKed3NAEvEv0epB/3YpGLrgcj+ueoAxFBdMbpW/AFXwlIs88h7fWQoURnd65zyVcO1UG0Jy2/uMZ6ZCm4UuK4gKBpEYjifRa3xVXSgeiJGmTQVSFEysKlbt0WjQDdU+MIBbw1loA7ISTf+nAMqmFJiOpkYfki3rfJIc/trJUvHKgHxrnLjunjb14Lys8QHcEwNS6ozvDyovdbri/yvGJW3A0s/jLrsmqOnkW5+lSJ+9UEvMhRG4T85IBadDBegDwPQU0KWTMiIkT+Ehd/CLFO/+ozGwR67OKAEPjRTS6x2RulHtWT/+z0MC52M2QrTXJ7LC3/6RfD8v0Lk/LYRp8c3+SRw21e2UiLWHPwos6OEWQbnu2JyOufTqg7i27U5ONEzbsSykvWurLy6yca5bVD9XfSjkm+/N63z43Jjy9NiY3K+hXUaKlzwr+Jslw7muwgYAqj6rZUBDQBLxKxflgz/cGcb9VoOfp3DoGECStqEL65N+HfXVc9Ir962K/cESToXeucKOLpR5FOm3zv3IR8BNKYhuVFou2FxOBP40E53xeB9TypwtdYm8wPV0Y1xGJc0LFlnTIaxrllojt7XTMv6J1NwUwNxlENG6GIU6i7x0l5GKnpw4hiGMAC7eg0/8YlzyyE8E1yZINHfu1ooxzHYmhrzawwPjMq//c3+uTc7ZCk08iKq7ArUREwFqNvTsRVWa41cxIU+EArbNgLfPRL2BxVxcYiuWwz8pwRm+oX/mFFjFuwrv4a0Q5ep0me31WDQpA2JVO5E1lyLVWoygALZh1iUJl9NYAqByyNcwPWcBcW8iwgD1rOTdU2lalVgzduBwnYDAJeq/TLuwwswEIshwSMbGKZAOn2jkVUXDh1fJlezIW2xioLsHUqy5DRDp8/6Felo3jOsKDlNcTP/uDilPzDJ5OYAHGHYqks65fHQQs/jpi6Aaw7RGaEoPi5bktDQBPwIvEKowoyH7k6FIv8UZm+ZgcRsD7c5aGY/NGbg1BEi8k3n2yT2pl1Nvp5f/Nkg7y4p1beQJjUd88NIUaYJZZyRMCLi20sDGEYleI8m+a85t0Sc+YfvjTBdeBzkVhzdwZeZ1r2rLfLFw42yZOdPlSkns10oxD7INLC//PbI/KDC1OIjLDATUFiV3BX1D/scgrnWABGSZLBzbotCwFNwIuEjSpVkGkVVnevhAuGFwgXgPpQvePvPp5C4ceEfPVIkxxpRxzUTGtEltxTIIntTTaklSbhz0vKRZD2tdGoivEcDyWVbgEvr4dxBMno3nLliBfBDx/223x/SvkMaJSbYLZvudiWB44tv8wDRePvqWhW5RZpr7Mj1tot2+A339XiwmunsoCJb75Fk2l5D5Enf/nBmJy+HZUphAqi/FtFnEv5Y5j7TJzIu0HcCWgDeC4yS3s9e4Ys7Xdr7ttmxA2ZjVio6z4jwQuE2XopGO034W8cDcVwsVtkBBf+1gZESMAc5uIcw9XqvV7Zux6iPQi12wUC7gIB9yPig7KJ1L+gBCeV4Eg6C7EpeYm+YTsYiZl5+a+ls6jsgB/xQqWFuNBv79P94n08Q3pO5U6Z01ekqqi+Mmnw7r7yPR9oxNWKSZjuBqcN1SzcWdngd0hnk0u2NyC7rQkqdARkpmGdCtVTYvC3h7FINyV//0lAhaXZsJG538t/v6KecZxKVrOiOm2szmoCXuR4VKO6ZTWqFzCekxdopVw8JAt47BCCZpb/8v6E/LQrKM9s88lXDzXL/vUuscw5A5pqLNJU45Gnt3vuoBKH5TYBSxjhw4qEuRA1t5GXeBG6sEDnd9mxmj9LalGwP6MxqIJJ8p7DS3M3UdLXtOatGLxmrx3FSnO11ziWsUxaQinofMAnSx/6nb7yBQ+SxIzP6a71wOVQ67Fh5T/nQrjfAZB8P0VM8HcQm/36p9NQ0kvCR4ySUbNeifv91PCfczztwKIOWDDMTrflIaChWyRuHpQKd+OB0Nk7Ft4if2qIrymrDgQyAhGVn4AMLg/EoZjmkaMdVUq6cku9Xfkj7+6sAxU+19WapQ5kshCJkptIYLSAGXY1t1WhbnN9xpKzgPm9uX8s02vVX+ybdfPmtiosPdYhNC9VhfHFl+b/Fd/EZ/mJlxELDxLLGYb4/dnuKPQfEFUyEFbREUwR5zbz+5+770p8TSw43lWIkLFxBtZtWQhoAl4kbIwIaEYM7fg0SnJX4FVEknSAJVlttw/ZS5SwvDIcRyxqUj4doN/SLq21VqnzYFEJlr4bxMtbbCdSYxkxQWtnOY3hSpVyfdJls5SABEYBJCAHygy2KYjuTERRfw9RAbdQsudjCB99ANGjHiS8cBJjogzD+FZLS+MicOKkaK93iQeJO7otDwFNwIvEbSt8e51NSBntIwFXIAPPHCeNVFp/DqsV2rQZeRvpsm9eDeB9VhqqTXJogxuLcl4sInkQTmXDw640a2vtWaFwF/j7nqZoBf9YSDDqTe4rRCkLszkLPzRfL7Vx0qCGBZ/nNsKfwT/L2Sa3w82xwORdm1UWPsf2fttlP+CpgF8cmiBI42bF6SlUnL6FGOpPBuNKGL8XE1sIZMyJh9+fW+9t7jFU+mtO5NVwwexH0k6tR9PIcsdTI7dI5PY1++TSuqT8VXZSXfyzIfWL3IABv5YnMroWWOtreErk7XgMwu30VQbxgPULAuTiGoxhFfvJ38xtJEIv0lB3rnfK75xqEv+ci/HiQEh+enlKPuyOq+SEu10Uc7dz9+s4ltY76h3IHvPLgTY3khpmraxPBiLyv/54QCUAWJlqdjeT3r2x/Hv0ncUuG7Hw+G9eXI/ohdnsrVEk2VAh7nvnJ5BYgePnAd/VuBseP33EDPNLgoVSeMMKF9SKDiBMMYb03DyuWGZbfN/u2pfR32YxE9W5zXJsAwgY6yO6LQ8Bjdwicav1mKQTso4d0HIdnEgieym3+LTInxvya7TQ1G236p1JEcsoVK6GYLKSlGkNzn1e6CBIRjVes4TTXvn6sYZ5XxnD4t3Z3pD86NMwLMX0km7B4yC0na1uObLJJzua0Rks9uTbGAjyR0hkmISlacMksQT+Rap2BsRrk997ujm/OfUcxefdiBZ5/XJAelHpwfEAVTLiRvuZz/QF866CbhZOMMQTNxertuXPh3ZMjruxiFs/Z8JdtQddxANbxadK4VHrqLPIczt88qML8O2BhHmbuZoaDyfnp1z8cTG5oBq6tl6UProbDvo9PfATMvGDhLUUH2jYmsF2Leo3C22X2yQDLpWA4zZu16qIcu7Y0SXBsLwa/C3gThteFnJu30v5mpMyMwJPdVbJ4zuq1QR99/iUsj+Vvq9777Mq/YiK2P8Ov1N+80gzFqxs8BPmdCGKuDu9aY2AoRCg39cEtvUj1fpJpFg/vrnqnknXUB2ugM5oAl7CIDH4vhOCNs9CVnA/fF9x+AEZvF9pLefHzPWdFqy6ray0gzBYf3kWEEfiyXNCYVp5p8YDUU2k0tKAKJnP7qtRIkN0t+i2MgS0C2IZ+L2yr0GiaQtSdnslDlUstWxeQecibxlzq/S5TquIglVGFssY1hX9hEjm1gPpG0Yyyoz/fEUbNciP86cGE1f2YbH1d082SsecBUyDdLMiu6EJeBnD1uQzy5Nb3NI3Xis/vBBEKZkkYiGNfTNBiyzGpH0TfKDUL6h1Q6fWjuy2jPRORVQtOWbLMUSNvlvdHo4A7yQYDcFICGaDtdTYhdWOiR8jKQamoJoGoXYLo0jwWSX6SnkmsPpFHI/P76uWXztSB4Ehh5pkHo6Q/sbDENAE/DCE7vP3TgiufOFAHcgXKmnxkArj4gVmtLsykgQtXLMlg0q8PlRmcMp6P6Qoq5xYOGPJ+qyMhiFJCS3b24hnPd8XhgpaCotU1L64z8Hrj1UCBtO8O+qsiNJwyxacD0xiqfPaVEYhdTQoV3kbsqAXkA3Xi0k6jFA/J2OlK6glcH5wcbITQkPPQdb0FPy+S/vndZsAAEAASURBVFlMraBDLUtXNQEvE3bGiR5FBYnndsYkCMGaD1FtmFam0S4vdAli6iJtCL36+rF6eXG3Xxqq7u0lJQU/7p2WP357SN6+HlY6tfztvd9cJmCr6GfEhS6cZgjWP7vdK1+G4Pq+tln9jLmH2o9Mwz99f0j+4VJQriFDrtIaz+l1SMb54r46ObmxCun4s/HYlXYsRuyvJuAVjsprB+skg4vxJirajiOGlivF9AUappmSKE/vk3/5TLtshvXrg0D7Qo3hXLtbvfLvXtokf/3RmPwhqjVMx8zwZSLOduGfLLSZVf8ZCYmunFOooffqfr88s9MjbVBDu19bj4KV33isWTbBQv4hNIB/eiWkFumo2WzkxjsnphvXQ8j/KGKxv3S4Fq4HzOS6FRQBTcArhJPxr09srYa+QhKqV6O4jU+IywD1vbgaT0vtWIdPPre3Xg50wPH7kOZUwjsWFeXRNRaFjnBQ+TGpCXG/xv2gWhGqI2B/3GGFNi6a0R3DhIwIHgs1ki/mKZRpMskjWz3yCqIBmqofYhGCZxtBYs/vqlXE++kQShihZBSxMurExr5xKBn188TWKvnSAf8d8uXnxp46Fho5436mCbgAY9MBK+d3T66DJkAEGrqoEDBTQKKcF1iOLEzymV10O9TPO0peRBSRIXnyYlKlhuZw7IZ6p3z9+HoItKclngwh1fj+JMNtVCEllanClRyWRJeCC0kjDRBRj8Ed41ogE44E7XGYZE+rTU5hEXYu+RJT/p0haCQwLroxMy5/DrAS8gn4Tw90TUGYPSpjqCNn1MVOrhlw0m3HefD5/bXyxLZZEX9NvvMupRW/0QS8YghzG/DjHP3GiRboJtjkz8+MQLgGEQW4CHlhlrqRfBnNsA4KbltQsbYaadRzG8q/yeuoR3Z1MKzI9dk9DVhkmRWpRTKY7F5nl//pM+sg5M7ZZP7v526Lx8fFKC5AMXOtUlsN9H0fQXJBMxThItB8JiHf3cCvahGtHVEAbZh05za6JT7qi6G0ExZkYUEf6aDIvUtqmbE305hl9/hWP3SBR2UQkSdGJeAI4n3bcT78j882qSrZ+f7r58IjoAm4QJhSC+BIuwvVcaulazwsV/pjUBvDCnIZVr1plfqwWLIZGr/13lkC4KGOhdOoAxeSH5yflCuDEah1WSQCzd5nd1bL/paZonH4nhsr30c6PCoEiX7thzXyFcV77mn38tg9XzHCB04uVPqtmLR8sGAXnjb5Ka18J7C5uw3C//+XH4zLx4giyQCwiwNR+fXjdaouXL6KtgdW9d71CP+DNcwxMlpjn3hntAOFW1/eUyOPbPFV9KRqNHwX6o8m4IVQWeZnFGE5utElX4nWyZ9ERuUqqiGUo/HaJkmsRxl0lt6Z24ZQFPJvscj27o2QDAeT6lY7IRMgYtM8AuZvaAUuZAnO3d5DX5NnlsM1+I3iwfv89j4c+dDu3PnCXRxKlLh4yooeD7L47/z+rhdDUFP7wflxFf9LzM/1RGQPJrSj7W64LaCdh80yfKvZZ8lV4rjPcd212ZK9JZ6cKNxwsTy3o0a+fLgeFT80PRR7ADTCBUaYJd8/u7tWuiF2HktO3RHtWeCOtsB7vndzFMC523ugFpvA0CRp9YB1m4LVk8Gj0M2MUu3mvPV8F+E9bF/0Q7KWnPKp3sXg7HfOhw3CfNiG7vl7zu9d6PEggakUZPSZ/aM1qTIM5+xfUTtITo3LnM+N8JJ+bz8sc94JvbC7Bsp/s3dDRujfau2DJuACjiwpjBdZA4LxP48kjRhI7VtnxlUttZyFUcCdPWBTJBdGJdAqiyP4f25r8Nlh4fhREj0rV4ejCEuzyNOdNXKwzTf3azOvcwtK9H0upeWsSZNKPAglZmvEPWwbxI77Irl6cf23+S2yAcVD3awBNKf5YJkd3ehRsdcBxGC7EL1BC/NhjV/JYlJgkAM1fNlIlIs+PHyR2FI57e7WAFfPsztq5UL/NI4hIxvqPLJznQeqarN9Q3k9mYQsJytpLKa/d++jGO957KyezQXI7etc8kXoL++HDKhupUFg/pldmn2u2r3MvSwPoLJEIFYLPyuqaODBsjUsBlmKRo3aKBaFbiALawIX/NzWjFV+xq+ywuSFgVxhydf218ue9fNjPJlie3sc5dPx+zwBL7b3vJVlnOsluGAGpzMguRxxze3HQq9pOZLbarGgt2OdQx7v9Mp2lHv33hVm24R03y8cqlNRBh/1RhTR87eL6h++xInxE/ho6bdn0dHFNu6DESNN1Q616Dg3q209ylV9/WiDvHPLIiGEwZzYVC+H4UOf68KJYF9dmPSYuDP388XuvyjfI24Yr07EiP8KXA+Pd/oUrkXZl97oPQiYcEuKIdCtGAiwgOe5npj86x/ekPO9YVQOXvoN83L7xdthG2oI/duX2uSrR+phRc5uiSM+DRKgJUZrjgt2c9NLeet/HeLk//ZHveg/IiVypZVnN7CIV5xrGE/LiYdZdtjkQwkyjO+urwW5HqmRF5H2urfFqxb2SJRzGwmdkQoj8GH/3cUJ+aM3ByQYxY39IpJGeOz09VJInNmMSzn7WU2DdwyH2ik+X4fU7tnsN26HkRCc+JjAkK+pN7fvvRMx+d9e75Ofd4WlPwCBekxS5Wxq0kIXaP3+d082y2+dbBAv1gJ0Kx0C2gIuItZMAT64wSmvHmgAAZlR6icizpn40FLMegm4H16/FADZ2ORzEFLJN5Ijox+wzJb/aN5zL7L6/uLMsJy+FZJuJpYskygYyE+SobX3oMtaYYF/GLHBmnSv7kMZolYPfrPwr0hqJEI+eNs/iMSGv7uAShaTiYcKqdPCJvHcnkgsORIhZwGbZBw6DxtREWJzA8PMcrMDMWXs8ELxwwQ3DOv3g9shOd0dwe/ThrAyYwg3q8cd0ReQaPH09ipNvvOugtK80QRcZJwZ3vT5gw24AEW6J+JKvjJveRRz13nSe+vatIpd3dfqQlRETqlrYVrLKXvBsJQ3r03Jtz8ckQisygYszJBcitloPXLBaleLG9oa8EcjJXpuI175RS2WQCeJ5tvWRhdu/ddJ11BC+lCB+GENm1K07l4g0eJhv+Xf2U+qnL2JUL5muCKegpukEST2oBaOI/TvekB+hMnw1ngaCmp0ZTzoF8X9GzFgaCGzOPcgVpnhcjua9aJbcVFfeOuWP0Bb+E/600IgQK6oQmgPeEyycKZ2o2pugLXMlmlVLrZPeY7i7fpYKCHneidR58wOEnaBkBfeyuWRpPzhz3vk22fHkanFBavS6ECQXCl5+GvHm+QrqCvHRJC5bTKaURZrN2q1MSvPNSc1mu6EGlihNydCWHRMwLXCftOvOXcLhXtNfyknt4FgXC6PxNT+Gn2Oe+Kt83ukKtpfnh6WP3t/AqF/EbXgRx99sfqX3++DnrnoRvfQMygp9I1TjVh088xzQT3ot/pvhUXgrlO9sBvXW5tFYFeLC5ERfhBFQlXfZbYUg/qLfSFy+1xIO3ub+gNjcgGLVu1+s9SBNKj9QPILwlk9OJWSrpGUvHdzWll4ZlPxLV+iQ7IkiSJwBBEPVlTYncWMC4GUyfy7TwLyIXzRXK7Yvd4BSUSfnIAyV77Rf72xziWtNVEZmIyq7xUTWFrgUfirbw7H5B8yk3CBxBHxABJGbTymHJOgA0g3nIAW8E1MuB8C06sIS6Q2MC3vYo95HpeFnokp7yJ4R/QMFt0eAZbLvRtYaPv6s6UhoAl4aXgt+9vMrT8GVakXYDVxoeYjlEAvRVO360iLTiD9+I2rQXkHt8IN4K42hElVY2VOkdxEGAScBGnkytBbLSDfUnQO++DtMHNF/D4Tbon5braFMUmdw4TxHVjkb3ZNK7/16VsmCcWSchwEPLePjT4nXAFObA8EPLuJor1isgUnj6vIJrw0GFIaERtrcYdRbUehUBNIOSHd8EmPRzDR4k6C/vByEx37S8SbUNPts4iEeWyr74E6H0UDT2/4DgKagO9AUfwXJMPfQKiSwAfYA8uIMaGLDdFaae+47/ytezAiciUWhy81rsiKVnAa6cguRE3QOptLbCvd78N+T6vWCouMQua0yOc23iZTQzeKxUQuuHESG8GCW/8EZhOSyZyOcjKpyvsuSsHA3D32T1eSDYuZGYzpbfSrbwov0AApEjOQtjyjjFdOq5f9ISSMjKn3UsfaIV85UittmDB0Ky8CuSXc8vZhTe0dET/y5PYa+dqJZqlxmpcUh7pSoBS5gjQYZkYrnCFiETxoHTNBgSQ9h9NWurtF/Z4+VVrh4yEkjSA+d27z4nZ9N9J561ECKp5JSRArhB3I0NqBxbq7OxrEhDIdnxE8L+FB5DGldRkHjsSUDxWOBpzzf597XKV+rSxf9M+CyeIUpFO/drxZk2+pB+E++9MW8H2AKebHW+pt8uUjDXKpLyCx69MyjaysfNRCMfeb3zaJlgtBRmjsCwmYoWSTCM+a22j1Ht/oRsKIR0KJJCYOhJ3tqpLHEDJ1d+/7JmMoDxVTn98vfG3utgv9mnByXRV5b4Xe9Iq3x7hk3j10NrmQZlwnj0EWUzdjIKAJuEzj0ILM3//msUaxwJf4HSiTeeCnrWQ93ZXCmIb1ODSZlqlQVsln5i3HGrgW/vnjLfLb0Fum68YON4lzgQKot8dS0jOOjYD/jEeBK0VnZb9n4dV1WOD85pNNkMOcH+K3si3rX68UAU3AK0Vwmb+nTOUhFMnsRfTBEDK6PumNKl9nOeQrl3kIBfuZssbBmm/dCMo6KLh9DXGp+UYL2YtMvbvTkfN/pwj6R8gyvNgfhXZxOudG0Qys4KEfmhmDOxGBw+odx6CfMVefOI+hfi4fApqAy4e9ui18DJqrYaQFT0yPIkgfi2K4aAziHSgZMur2HUx7rjeEhUCRA5Bw7ESCxV1rcgv25+JARL53bkKuICSMqdX5hcYFv7yGPiT5ch5iWBzLCv0qtDOaUBpJN2MhoBfhyjweLSh0+NLeWiV+vQ4hTEp+ERfPWmokCpIwlds+7ovIf/jpbXm3O/RQCD5C9Ynvnh2T75+fQLJJ6h7t44duYBV/gX51al08u7NWlZPfgrLyvJvQzVgIaAvYAONBda/fOAG9CBDvX58bR20xRiWsRUsYCQzIEnwfNdNi8SEkMHhkV7NdGqtd4oMlZ7NmJYCFuuFAUrrHY0hoCUHkKKpibcktC8lEGmB4S94FRrlAA142NVjlS4fgeoAqm27GRECroRloXCic83/+clhVU2AoU7HTlQ106He6womHBJJBYG0TYlYp6diKpJE66BjbbQhXg8bxTSSzXBmKQHwnqaQlucKvjbschLx5YkmkbcjMe2lvjXzz8XVIAJkfX30HbP2i7AhoAi77EMx2gIkH7yNt9V/9zW2VgGCj0Pjsn9fcK7olWFmYt86MF2Zj4gbvFHLiPLkEg7WM0dyTgrgwFM7lSMlvPbIOUQ+tgnlLNwMjoH3ABhocpqrua3PL147Vy27k6k9jBZsX1VptzBLkpEQNBWorTOERxGt+hjySu5Ph1ipMd447Dt8VJae/erRRXkRZLE2+d6Ax7AvtAzbY0PgR9/rqwToZhQJYD5IToiAcSgdSsGatNVq+Zpp0quWf1xoKizteLrpR43k/JvDXoD+9D9WXdTM+Amvwsjb2oPBOe32NQ56HUtUru2pVWFWSDKybRuA+CNBvzhC8g21e+Z1HmoURD7pVBgLaAjboOB1s8yg/ZzfK2Jxn3bM1uihn0OExTLdo+dJPvnu9V9V0e2yLFyWmtF1lmAF6SEf0SD0EoHL92WEzyZEOr3xurx9as7idxEitYXdwuYbB0Pul5Us3TR1KOTGWnGWFqqCfoVvlIKAtYAOPFdOS/yssyE2ipM11CM2EEQNbKvlKA8OiuzaDAM+FGo8ZmYOQlzxcLZtQp063ykJAW8AGHy8UppCXdqN0zAlUNsbr5BLKqBv80HT3VoCAipfOJuUI9B3+2ROtssGvyXcFcJbtp5qAywb94nfcCQ3cV/fUyonNHlSOsEocfj/d1i4CTFc3m7MQc3LLZ3bXyAkkq9APrFvlIaAJuELGrLXOIb/1RLMc2uyVJMwfTcEVMnAF7ibHnZWZqz0W+SePr5dX9swqxxV4V3pzJUBA+4BLAHIhduFGuu3RDV7p2ZGQwHRazvdEJAFLmAUpdVs7CISgnLe92YVY8Vo50u7Bopu2oSp59DUBV9DouSHe/iSkBcNIzhiCIM0AHsyU03efFTSIy+wqx5lTLWvnnUAl49f216EAqJaXXCachvmZnj4NMxSL60ibn/KVNXJ8U5U04GKkJoJuqx8BjjMrKz/aWSPPI814R7NDlbFa/Ue+uo9QE3AFji9Ln//e401yCpYQJRhJwVwV1211IqDkJWHsbmywyFeP1MhTnbqs0GoZaU3AFTiS1IXYuR5yg3uq5RQyn+iC4Mq4bqsTgTSkOTfW2+VVuB1ObfIgPV37/VfLSGsfcAWP5AuoEOyAZXR9NCKDqC3H0vIzqo0VfFS663kEeFfDydWHRMhHUbrqn5xqEZeWecjDsyqetQVcwcNow6Lcvla3/PapJtkKAZYgVsh1Wz0IJOB7yGYzyHJrki8eatDku3qG9s6RaAv4DhSV+aIRoq+fhQ5AH6pDjKEqMEmYouUWHRpRmQM60+t4KicvyQn2pT1+OQCZSd1WHwLaAq7wMSXPtiNJ4wWsjD8NCUvqR2h3cIUPKrqfwSBua3bLb5xqlt0tzjVdGaXyR/P+R6At4PtjU1F/eXQLCy9m5eZYTC4PRiSKqhFrsaZcRQ3aAp3NL6bubrHLCzs98vQ2r1TrZIsFkFodH2kLeHWMo9ICYGbUlw/VybYm1yo5qrV1GLxz4QVZB4WzF6Hx8MKuGk2+q/wU0BbwKhpgL4S4/+vjdTIUTEpfICFB1FDT8pWVM8DUePC7UQm6janGmEjhgtBtdSOgLeDVNr7Q4/4CdAK+fqxOsqYM9CJ0OaNKGGJGcaezKdmLYqy//ysbZHO9Jt9KGLeV9lET8EoRNODvO5tQU25nNSokVIvfY5UoSwjrZlgEUhBVyqDu37GNPnl5HyIeOlxi0/emhh2vQnZME3Ah0TTQtnZAMet3EB+8t0VbUgYalnu6kk+28KOi8VcON8or++rv+Y7+YPUioAl4lY6t225GTTmPfAZC7kc7fEhVRjUNLeRuuNEOodxUc7VDvn6yWU5C26PGqdOMDTdIReyQvtEpIrjl3rQLGsLPwhURRRmjoWBURqAjTJewRU+75R4aFatN67fBZ0FZIbe8sr9WOursZe+X7kBpEdCXYmnxLvne2v02eXFPFUR7XFKP6rlcadet/AgwW9GKBdOjENd5YbdP9qxzIJSw/P3SPSgtAnrIS4t3WfbW7nfJ7z3VLgfbnbB+Kdqj5SvLMhAzO+WimwXk2+KH3/dIPVLJdVmhco5HOfetXRDlRL9E+6ZltQOREZ+HnGESGgM/uxqWdNokNuQxa/W0Eg0CdqMmPjwDetkC8aQvH/LLqY1VuqBm6YbAcHvSBGy4ISleh15CAUcrTK9bE73SN5ECGefK3BRvj3rLeQTo+OGDWs4tENR/cluN/PaJZnFreck8RGvy2QRflHYKrqGhD0RTcq4nLP/xJ/3y1vUQCMGqSt1o8bTingQJ3HlArln8VVb5F0+2yBcQ79tYBTbWQQ/FBd7gW9cWsMEHqNDdq3ZZVSmjqUiTtNQ65WxvRG6PJySEQp92+CoYIWGGX0K7JpaPvLJ28Q/ruFFcJw0bp63WIbvXu+XYZq+8uKtaGqsBtG5rHgFtAa/hU+DySFz+/INhefNKSPonksoaY6wwiYPCMGzaQMvh8LB/87eRxIuTF+8orPjHgkKaNmh0PLGlSl7d65fnd/ketin99zWEgCbgNTTYdx8qkzMmIknphgV8sT8qH96OyEe9YemeiEsglhJISeQIWLPw3dDNe0948gtsZnh6PUiCaaiyyU6I6RxEEsyhjdWypd4qTV4z6rlpy3ceeGv8jSbgNX4C5A9/MJCUG2MJuCNiMhpOShh6wtEYsufA0mmUxdHtwQjQbWPHAqcLNfrcDpNUIbV4fY1dOupdsqnBIeBk3TQC9yCgCfgeSPQHeQQYJRFJsOIy3BNs2hLO4XDXv7R+6W7wQkHHCgLWTSOwWAQ0AS8WqTX6vdytdd7DuUZBWMRhY9lSL1wuAif9lfkIaAKej4d+pxHQCGgESoaA9kyVDGq9I42ARkAjMB8BTcDz8dDvNAIaAY1AyRDQBFwyqPWONAIaAY3AfAQ0Ac/HQ7/TCGgENAIlQ0ATcMmg1jvSCGgENALzEdAEPB8P/U4joBHQCJQMAU3AJYNa70gjoBHQCMxHQBPwfDz0O42ARkAjUDIENAGXDGq9I42ARkAjMB8BTcDz8dDvNAIaAY1AyRDQBFwyqPWONAIaAY3AfAQ0Ac/HQ7/TCGgENAIlQ0ATcMmg1jvSCGgENALzEdAEPB8P/U4joBHQCJQMAU3AJYNa70gjoBHQCMxHQBPwfDz0O42ARkAjUDIENAGXDGq9I42ARkAjMB8BTcDz8dDvNAIaAY1AyRDQBFwyqPWONAIaAY3AfAQ0Ac/HQ7/TCGgENAIlQ0ATcMmg1jvSCGgENALzEdAEPB8P/U4joBHQCJQMAU3AJYNa70gjoBHQCMxHQBPwfDz0O42ARkAjUDIENAGXDGq9I42ARkAjMB8BTcDz8dDvNAIaAY1AyRDQBFwyqPWONAIaAY3AfAQ0Ac/HQ7/TCGgENAIlQ0ATcMmg1jvSCGgENALzEdAEPB8P/U4joBHQCJQMAU3AJYNa70gjoBHQCMxHQBPwfDz0O42ARkAjUDIENAGXDGq9I42ARkAjMB8BTcDz8dDvNAIaAY1AyRDQBFwyqPWONAIaAY3AfAQ0Ac/Ho+LeZbPZiuuz7rBGQCOQQ8BaCiASibgkkylJp+fszSRikozY7TZxOJxz/rDyl8lUSiLRGLaPnZCf8KQaXpOwMtmMuF0u7Nc28wdjPqUA2Nh4QMbHJiQUConZlDsQdUgWk2xsb5X6Or8xO1+iXqUzGYkncG5hzLMZIJMf62Lvf+a8MptNOI/sYrOW5FK6c1QZHHd3b59MTgYlk8xdWJyLzRaz+HwuaWysl9qamjvf1y+MiUBJzprxiQkZHZ2QSAQXCf5TxAg8LNa0NOFE2dC2oWDokGD7B4fVw5KlgT97RXLfFrNF3G6XtK5vMjwBJ0Esl692y5kz56T7ZrdY1UWOo8AhWR1W+fIXXl7zBByLJ6R/eEyCEwFJJhJiMpXmpo7nGcnO7rJL2/pmqa8tLdlxcn77g3Ny8cIViQajOG6YMyBlO4yKTVta5dFTRzUBF4xVirehkhDwtRt9cvb8JzI8NKwsUBpyPGEcTqccO3KgYATME/DMuY/wuCDd3X1itVixH1q9BDArsURGmlta5MXnnhC70148VAu2ZUxW2SSIJSrhWEisNgwXjTwclNPkUhdcwXZVoRuaDoXlowufSteVLglOTc1MUsU/mEw6I1bcvdU11skzTzxScgLmeZDGBB2LxSQSD/GkEPYplXVIPJnF3eas4VF8NPQelotASQg4GIrK8Mi49PUPgAwz6mTh7bTT7ZFAECdPARpPxKvXb8h7sAq6um7K1FRQWShkX1or2YxJNrRvkE3tLdJQVyMOXDyV0MyKcTNw1mTwCtipZlYTC4CshEMoah+TyaRMgngHB4dkYnwiN0kVdY+5jZPs7HA9pDAmUZx7ZWk0LHhuq/PCpJ7Va94iSWnuBMpy3KtopyUhYCtv1UB4TqdDWW204JQFjBPYarUUBM4r167Lm2+/J5cvX4NVkFBuBm6Y5GuBJVztqZZnnzgpj5w6jAunsD7nghzAAzdiUv7f3O01rGLgR/LV9Mu53KSsXpKh0+EoGQGnFQHbxIbz2mIuD9nlr6O822X2Pc4MfXI88Ioyyh9LQsDFPFgS7AdnzynL98qV65JKpe+QOv+WwoXS1FQvr7zwguzYvrECybeY6K3ubXP80/CV8rnQjJTBdk1YgEvjfMuo7a9uLPXRFQeBiiZg3vp10e1w+pxcv3ELi3wxscFPSkuA/mBeF52bN8mxwwdkz66t4vE6ioOi3qohEbDZbJh8G1SUAs+HQjZGXNAnX1vvVxE1hdy23tbaQaCiCbjr2g154+135TIsX/qA6eZgo8VjxcVXU1Utjx4/Io89cgwhF/qebK2c1hx/TsIOuCR279qOSJs6FQZZyOPnPhgF4XK5pa7EERCFPA69rfIiULEEfPrDs3PcDqk7q9+0dHDTKU0NdfLFl16QbVs3a/It7zlWlr3D8yQmq1P27t4lO7dtUnHhhe8IfPNwQ9htlRBRU/ij11tcOQIVR8DK7QDLl9EO16/Puh0IRQa3hWaxyNatHXL0yD74fLci0qLSFtxWPqh6C4zW40KUWap8PpCkRbwej4ZFI2A4BCqOgOe6HaLIdsu7HZjd5rA7EGLWJI8dPyanTh0E2OVZnTbcKK/hDqWQIaebRsCoCFQUAefdDpcvM9ohdSf9k24HE0KBmpqb5bWXX5KtmzcAb02+Rj3pdL80AhqBHAIVQcBcYGOcb97tQDdEPvc+T747tnXKyaOHpRPuB6ezMLHFhT9JCh8OtVAfw0h8mZoKSCgWxuJkkvfj4rRb1cKkB2nYNTU+YORa6KcF+yyJFOFAcFqmQxEsgCWQnQW9BriIGJNts5kRs2sTn8cn1dW+O2GDBdt5hW0oNB2S8UBAErG4JJDdloQD24YFPidim91IVuJ6htlaWoMiGI5KYGJS4nH0CckuiRQy/9AnByI/7Ha7+P1+aE64S4p0PBqXsalJJL5EkR2aggYIQgFNWHAHNg4r48CdiHTySE1tVcWEQRuegLnazAw3JlkwzpehZnm3A7PquNLd2NQkjxw7IsePH1jxCRGJREEaIYlGozPxo7kIUpvFLl6vV6prfcvaxzQusrGxcbWxfDwGj83p9OJErsGFZlELOsvaOH7ExABeLKFwWG7fGpDevgEZD0IjYTqGLEARn9shLqR++/010traKM24W6hClIgd0SKFSoahCFIKREsMh5GZ1j84IiOj4wrLEC6eOC5iBy5epwuJMbh4G+saZX1LkzTU1wIHJx4OELRRJ8/ljsy9v+O4E6sYCDcwMSUD0C7pHuiXMLJCw5G4REEuLkyYPq8b41Un27dsUrHsDowhk02K0dgn3lXGMXGOIYt0AGPX39MnoekgFjDjEo6nxGmziMflEDf86e0b2nEetUhtrQdheM474xacmoZwVBiEHee8rxojUlyY8L0gR49n8aSd61MaE0BCprHdkeFRudkPASJMVjG4H0PhJAg4A0zQL6cH/v4qqWuol9YNrYiA8uIzuwpBNJcpUWYx42R4AlZJFojzZaiZcjtgBmZjgL0dWXTtuIBfe+Vl2bSpfTHH+9DvdN3olTNnz8u1a11I4kghA41pvzndikMH9smrLz/70G0s9IVLyND77vf+HkmjYMMZY4ZktW3rVjkOy33njs3qZFnot/f7jEmo+TYwNKT0Ns6f/1SCgWl1gWeySBKgQhgaU7+ZOMDjYay0w+OSzi2b5ZGjR2VTx/pc2nZ+Y8t8vnG7Rz4696lchYsoFA0py5f7p3+ecbPsCbHE/5hssFyKxTGbBeGCNVUQkGmTU0eOIF28dZl7r5yfRUC8n169Lu+88wFIZVhNUFR1I1YkHT6IE8eME9Jbb70PwZ91sm/fThgZB5XRkTPxZsd/pUcfx6TZdf2m/BLX2sDAECbRsJrUs+zXnT5x/MyqX++fOSu+Kp90tLfLk48ek80z19/bH5yVD89+LNMg7vyx8Bja2zfK0cP75cjBXYvuahziSl03b8v76FMvJoMwDKNUhuc0Y/xxXs2c2+p8Yr9wTjE00GK3SL2/Xrbj2nrs5AGpq6tf9D5L/UXDEvA8twOSLPg+pwbGaAfKWDpk146tcurYQdm8uR2gF+ZQaJVMTAZkcGgEJJZUg5ojYJdsCQaXPT603AdhVaTxH4mQjbd29Tg5YnOs7aXsIG8NfXLpmpy/8AkmqS7sY1iRryJcnJnsu2I8XkTYeP6CMk2YJYrbzCjcFTu2d8r2bZulGfGyy2kjsOwvXLoCDY4b0n2rF6QyLuksFr9ItGoCy21VHTX+QVdyFxBfQElxAloOwXBQAlMh2dW5FbG7nVLrr831ezkdMuhveJfS3Tson16+osbqVnevhHHHwjGxgDjujBVGKo8RX2TSWVjGYQgyRSSA7x85uF+pCJpNhblb6Onpl0uXr+LRJTdAdLxby8D4IHGqPs3gqeieHUOjGtsUrocQXEzxRESOBfbLvt071W+HRsckMDmpxphEaYGh5PHWwJKOzmzp4U+3bvfL5a7rcrXrmhCnQCAIAyypJm2G/qmGJ76a6ZLaHyd7PgK0xKfDylres6NTtmzqgLVe9fAdl/gbhWGtAneaBMvZOOd2uKFuael2yM2o8GfidnXDhjY5gSSLQwf3FnTvvBC4L94OW1N0C8xawMysWm6j/8yJWzVGKSsLGOcxT0z605Zz280LIwELYRi3+D994x2Q3zUJ4YKgNoEDcanzL+ZZqwo7u3NRUbzmPWgN92FiCMECeuqxY+p2ctHHiGOgy+PDjy7IT954WyaxLZKJlf5msefGixvDFZK/kDmGnBP4D08+kx0iMvhsRIk1DcmtW7fVxb97zw6pq1/ehMBdGrENYFJ/9/1zsBDPQp51RJ3HeVEodW6z08A0N2fmSEZ9jtMuEo8qV1wftpGA7/OxUyeVhXqHjJZ5wEOQ8nz/9Fk589HH0g/Ll+e9nXeZeNyvT7SILZRGxXMgMCXvvD8iwdC0eN1u3PUkxY3rM4FzXf2e38U5R5nMxZ7nY+OT2OY5OXf+AibzQdyxQXMDfl4b4rpz28wBdeecUm9nzzF+nsUEQfGvmz2DyiCIwY1y8MBuuECKu/ax1GEwJAGfOXceC25nIawz3+1AYrbB8m1tbYXb4TnZvLF9qce7Kr7Pi44n82WQbndPj9y4jkxAWBckdLppGAvN5AAbTnr6GpMQxOfnjBThbb9lJiswf0cxBP/j+x9kJJFJyZMnoSOLhbH/v70zf4oryfZ7gkDsFLtYJUAsEiC0oLVbrZ6erXs8bzri2e8H+9/yb3aE/aMj7BcO2+NZe8at7ta0ltaOQBKr2BH7DsXuzzcvFxUlCm4VSGip7C5VUXVv3syTJ0+e/XhpqxCCP/zlOukgn5gZpAablEYHFv9po4jjW7MioxO2q8NMXL8lMpoDf1ux0b4fQj8cAzc8ZX7/zbdmAX3x5QvnUE+kehnKO3/NC9bpp7uPeN21XG8SBQE2CYhgBW5LrRZDJjOpZeLRtYq9W0KvvyKY0bS+8xx4T540Ir0gMWDk1AEeaevo6rcHwoMHD+hr2jIIkpzU3PVbZf3ULD6BU5A51EuLiKFwyBjAhIcygPX3D5n//n/+ZGLEtNg83Pa2sP/pgQP/7odb5nHTM2tIlo0nEE7ivJWHQ8A5HBtvVpCwVuB4YxmPhi580pikKgFcfF6HmWtFzTNr+zlVV20Nv2EP7A3d8E4RYKkZJHaI+LYRZCF1QKCBKJnTua7mpPn0yiX0lkctoN8QXN7pbrU5FhdJv4nIz06x1TLWIWi5GCCqj1dYq3kqxo4YuG5xpNKlTSMqDg0Po98bxEA2arlwcftq0nW/JFfzA3TfZYUFJq2mGo+JncXbaTb/k+bnpunpM7jXUQiHE5qrQ1KvQ3HxphRjyLGSYjgjDCIExMSjmxPRlrFQG/7l8Ijp7n+JmDhtjU7aPCJCY3BAtyBWMbFx5tc/v2w3U/gL4nDarsE2/Pv37w6/fwWC0mbuoZ+fmZmxhECHD8wu3iGLjkR3pNAUA3tVOElm7RRKLwIsjnJ6egpubtB0IYpPAnepx2QkZoE3U2G6RMrLqIU/c3N+08z6PXz02EwCfymo4hiT2gpGQBG+Y8fyTXEBY8LjQQFN8jwSAZZHywx2BtkdOnu6kbwQ9zEgyoCXGA+XuqmbdQ5iL2PSNUoh+6S5xTx+0uyMSTgFwyAcXkYNcxhD3qnqUvAbDwwMgclw3BABswTOLMzPY/uYNkNDw6a9u8vCLR6PGx0okhRl6Pz+5j2ThCHw3OmTAu070Q6cAAcijjUC/ChvB6kd5jdPd3EHiZz0VcdLzWdXLpi6+hPvBPAOYhCCl0uAXw7O200sLigvP9ecPFltrp6/wMYpeG1oc7ijveh6waZ7ZppiWs3oxDiEedFyDOKEVU1ioK/fNDW12Oix4+Ulr/UR+EX7ixcg9E1E6RE2yKoVSTUubRhVHCmEmJw5XWtO1aFK8OVAZAJQHgZmBOLb9qLLJDc9N20d3WZ+dsoSbhFhuRa1ofcXETpdy4FCQp1APAkcR6jP4sKVs1fibE6Wz1ryQ10b/vfMEw5LonoSc91pbIuLy6ajs880P23HM+WlSU1y1FiWRgGS1LRUa2A7V1tn6tDFF+FZEBPkcuaX+qEFAg7BaYExGUPaGGZegqgDrwDYepjM0tKyeYpRW3rfl4j48o4Rx6gDQWuYlppGxRjWr6EGgldt1zKYYi3ML5mWjk6T8jjFtLd1mvHRCZjiVTO37HCaO8FkuyFqTI1PnptG8GEY1ZiIvauyECORkZ5uSqic8xlGyIpjJSYr02dicGd0m5+yTCPYHto7Okzs4VgzwME+j41DTftDkuBTJMbio4WUa8o2xfl5zNm9++DeD5YAs+KuP+99TuIbWIWfPW9DXF61eh+BRQihEzUNRP2nr1A7VJUeHLTeoScLwfWKR9+alZttfvvrX5rLGGfWIF7btWTUETVVFeZoYb6pOVFh/u8f/59pYeNoA6uJCKu/O1QUkatQKAIsbmQcvXNbSyeh4D2b9+qDOF9fho/+T5ivv/zCuk5pPK5Yay/WPzDX2UeyTQbuZzU1lZaT/tf/9UcrUgsfNI642HUzOT5i/vHjHXI4X8JtLm/z9t0+cLvtQ/6if/7bd+bHWynWaLTbfZ5+B7ziFlPRcZZDCK5evbjJKGx3v7i6b6/fMFLzJEIY3CafaIOq4XLDRXPlwhkOzUIr5rsGWvc6vSccTjSn60+Z8rJy81fm8+DREys9uDgQeK2Xz/65RfMDbp1Si8iQq37U5FWwjPrgE7x9fkZJoyLcFa2hdxtClchBUo+xtLqy1Fy/cRcV1gPT3+fgg9ufl7G418xMzJiffnpo0wvINVJ9OAc6B11Kovn86gXz5bVrRq54ks6Cn5HAd0WFORgnM01Dfa3509+/Nz/cvGOWkRStzhoJkf9NM9x1Cnuh6OuvXuvDHcvbfD9QAixd1wSneWPzU5tSUmoHiTGODsdZdQFa+CGxtRldZ1pWmsn7wIwzkS74IgdVOuLhZ5ev4HJTAeeEXjWYVdnoXDAUl5MOJ1F5vNzU1uHWgxj7EnHWRXRdOolHwgDEYgzjjFItyq0nsAmZH7e0wr12W92k1SOrc9F9Nm9VWZndvPmFufa2UOMR4dcrg8KRVZXHcbGqsyLxOM7/6jMOPbUKkTYiJp/Eih0OAZbszvaFI1s0vb29ziGz/bkUODVPn0V8LUOAn2kCelpJZ6EbxsXRYQhdF8bKWUdHzsU6qJJQpxUi3p+qrTYVFWWMMXQvLrERE3LlUgOltRbNAEY8nbWHBPsw2hKSkIp5DqJyWsDw6qpoNCYRvqLcPHOS5EXHiSbdqWtnX8q/N9FcaeDgRy3xR8R8/3L41UEUNNTc2mKGgJWjknF8nZexAyRhNLt4vsGcPX3KpGaEzuchKMjGcZhDTnNqOFMLfs+ZO/cazQoHcTwKYeHEMBJbV3c3VVTGTTY+1gfdDpQAczRxag6ambkp87ylg6CBWeuob7leNrqLeHqXc//3t+5Y8exX164i0kZufDhooO/P82XYOsyJn28unj2Li403w5merSi4+tqT6BZn0ZmNWILwakzruOFNYLhoN/Upp2xk0avfjNXLN6On70P/J+u01kZuP3HoazNwhD8JMa0KU0rJJJ3jZQiLNuIonhRqUmVILJXnwBBuTSdWKzZF0sDxhPqszSZDkX/BMWCFui7c7zdxE/F3HkIImoZsY+Mqw9UP8Z2xuu1DMBxqMohK13sG9UwZIvFOxDe48yJUAyeQYB7AyUkPuwaR2o5rDr7P/XsIl8G2ji7jhzOEIm026d4l5jfgfXK8tHhH4rt508aHTJiieg7Je/cemcFhuUEuOYde8IUh/h4aHTUPnzSZeQilPdB1HYCNRb+bkZllLp47a+0JIW7f9utyVGgLzLG5pcvqgO1Cgauq0K5DvodDSIeHIg0Psu1w7r65YbmEdXZhxnT39aJ3bLWcr6Kk1CySBzxenJK+m0D0vXv3sfnm+i2MD1hiP9ImWEhcLCrIN9VwTz5f+BnfyqiPV4lv5CbCb8BShUxlXW/BDTDYb9OqHyAqI3Jbg3i76yhdq4I76uqq0LG9rn/ebZnEedWiHpERKmGjXJTmKAohL4qu3n7T0d1rcWC3vrb+jtgJ7ryJ1yGkiddUK1sfbvpw6+pk3JqHa/DUJSv4SKcRfFJ/qp5ghvB9U/Nz8syF+tMYN6VaCS/Z0BiRd90Y9KyhNIDyC9o+X7q5QlBQeNKGZmRMcnqSOX3uJAQzLWx1zwQVrVtaHaO7CydJFpmosyrLjpp8VFVSH4TTdNgdycszx4oxKqNScyUVccIy7rc8V93ImXC6fCPXHggBdmciJJCVV+oFERQBSSexElz7ELfkxuRsROcOfX5JiOuDh4/Mw8fPCRn27tjtPvNDeHcI8Joph3uqhxsS8Yuk5eTkmBJCShNxiRLc1eTiNkPQSNfAqLV2B/Y7g2G0H45ZWehcS7d+t5sZwl1WhoU6/4i+iqjl5OSarOxsS9g1R1cEHh4eR2TGcyPMpj602eYYtySofXmhtrH9wK0tWvew0Czw+NgMhiEnIEGHlcajlkqKzLw89JVHsjgAw9+CMiKdxcCZjGeCuOlw2jieAr0DQ5ZIOgcIKhUkGB9h6YVUDM/EYBlJU1RcbW2NVXGthjGm1dVlK3HNzc1bGrB5qEMLlLOklCjNVEKyI2np0JBjMATp6Sm2b/Whw1g1I7u6B20QSST97uc9ke3cfRqBgB0IcLnmCGj1dSdAkDXT3tljRsZGLZF2/FcPQaz9+Bz2mZs4j+u0bDh70paf36chvRfdOAQYDhjvgPJjRfBXYbIHG7NMwap+tLjYjI2OWP9S6d61Kf1Y7scwioh4BTbF+PejEpAvpmuh1u/Si8ags01OSsEB3jgEeoPYBN4f6rM2hfAgTiInG3li3CG2Lm6MT0xa1YS65DJPTWOS32xJbqE1JLnEz9PNO1ykfvRKgijk5+bYDR3q8qmpOcRdh8ty56J7M9IzyH8hzxBHJRHq/lDfy6p/lHVPphrHFj1CqBsCvtcaSsUUTw4FqS4EUzE/Pp/P5MIxBntgBNy648cEpBjhUgpcufr00gSLEaRa2R1s21hb3W9hjJ48DR2wxpwcwCR46VuSnQ7e9LQUG+Kv/tSEa1JtDQ2P8vvBM3AHSoADAamTPA+EPnuq1nyFBT0O5+4H+E3+4Zu/4iozjJ+o45cqvaMQprm5Cc4PfWayY913vSkC+/yQP4vAJLIBY/GCiLRJHPOlyr8TX0t304jCrS2blUUSw2AEC2xyDRxBx6e1CozAkpuQIvxGXuKShmFwmfvDaSJOeo3ip4xb/ZZb9f3k9CQBGiQyYs5eCI42G97INnnSv/+3X5PMpsLqF7d0vJc/NAzQUR4ortpsu+6mMLyN4sObjGFI85CkoPeU5DTUB2mWyOjvSJoYEiWgsX63OgA9HsLLi/P4YmOUItOaA0tn4UXUFWFqQRzJgLgnEb14Ah4GwWqtUN1pnUZHCSiZmreHgQsJgURwWYFQjo9MmOYF8I3DWZy61yZCK9fKybFJs4qB0IWz7Rf8nZqZRMU257W7N3Zd5Lt3n4bkilD5+YXm3Jk6cxU/v2wMFGp1uCgNDA+gbmgyQ2zueJz7FcVlNxi6r9b2LjiveBA62ZSWFFkOap+G9c52I8IrH9QkDHDaNHtp2ihpZHhTikj1+6qJyyMyDo8UIe+hDRXHEp+lnpCqyEVo3RMngxlc873HD+2Y3OipV/3t9snZepJubG4ENqb6d5+h6K854vpj1rjOo8S+jkdGbGyCySD7WwLFWPV62215CRcoDFJEEGx5dFJiHBxdZNyv25FgkwwXnoA73CIEdT2E+6F7vd5XCbDQerK4gV/b/aTwYR/9uTDfckEYfyjCz4bcIyW5XGeo2/X7HClTZSxzia97rSSsEQyG94iKFfENPCzca3Z+F51wVJwTuAK6umX3nlV+U9ZD4Zxrd3B/e5vvB0qABSBxtBJ/zp6pN5fwh1SKO7flEvGiisaKzJlX0g8IgrhfIUk8xGcKwDY9bcUtLRN3nFhT9hFk0hKdFEIqukx5H/bSFGWow0t5KrZsFuArhBcHooxtLgGWWkjqCa1BYNOBoDVq7+pCNywuZWM7Be+qwJsCP290J65a3g96DyQE6nsJvd0yzvaHOTS8Nc2JyLsgYuPt3r1ftQzclI9AskFwS8KDR689NWCbTErPRPxi/XC1u3HAWl/l0F0hoiwQtgK9XvIqSt0lqMTLeJ20oolWpeXlehHAZaIBhTOB4xIHK2OwjIaWOdAgveKTHrxxvVRqVrVGf4FN3yt6TlKeEnsFPjvwujf92Ss2v5FxKDqlsOCIuXD+PGnjztm8sMEPqigrtSf3AgT4CZE7syjrXaNTAmqJNU7/7777h+WOMtIzUdzv/RQPHsO79Lc2knxzU3wpNtfDXsam0NMUuDHLHQhhg5ryNigjXIJxODhFOi3jR6oxBCOs/t5XNVAA4VTfClyYW1gyh8klHFbbZl5h3R/hxUtLGrMoxiuq4U4p8XASKrXIDEvucERwpYcWB2wm3G93fl9iPJyhW5vgw0v6d8etcOvP4f6lfryrIAi1XuRQIDw9AEybjxQRjo9/Bb/NHyL54AJf9250ucqBbp8dSX/7dE+Y2Lw/T3U3sJDwOPlEPyWRupJyh2rlJN0RnkwuzJvOTuK84YS1ONqY6ktx8fdRU6wSG//Vrz4zWVg9P+gGMVpdwkMEbmYvTUTND/JbjnYbPJdLmjaU2+Toru+0+QX3zQYHvA7sY2IcT4rN7/fpQwxRTmswMAtwSr519N7bjHWfHrVv3cTFcVBuZbqcjc/YnQRFe4UVem4IyPprFHX7KViCjc5aWcUC1U1sIdaNpD/oSxU5uGVdt+9qx291SM4Rpuyl6bnCp0CDbuB92t+SiEJFdwZeG85n7I+2qUCA8P8g24EQYHfCYv1ziWrLz3N0vu73we8StU9UV5jzWC4lBr8gTwCYYi9zOa8B3NMWQcjCIzk4uJ+IOIuW7TWAtgSPJeK/hW370DRfGXOUy1fqgb00eTPMcnjpXRt0s23MX/65cejd3aaNchjjzVbHfwgB1yfBiVWQVD2Z6LAVEHs/m4hDcVEhKhcZYnjYPsFyP8cY3JekM2jHVmLHRYKyVGlyvdxLExhUFUJ6ek+NB8dTqkveCsq4trWRYIfxzCNdBp6rW6/x8heJoehD3geJcK4ug7TTnTJkxsnGwIORqzaXVm6R8uMtKqJYgO1rc8vv1J2n31xjnvKVHMbT4iDbgRLgdVLFIYB4nv8vPiUzFsaV0YkxM4cT9SoisThhrdphFmmBhC5/+uPfTSwE4NrPLnru9726kL0jAjyHhV211vbS5MSvyhVC9q00TVsB7kQEGA7FbbHojOPRFWpjWZGEH7RhV1eXMOBkm//wz78z+bjGuYZV9769vvMI6x7nSj177e+t3A+M5Aa3Tk6L4OaH0wwOcgm+Zve/1/FHnrcRbVqPYJIa6n4ZbpUCwDkKnKu0nJYAI2HuhQPWQbm8SCUNhSPHe8u7G4fXxKHNzHuClSNdSf1Vefy4+eevf4vftEpV8b1O+n1skuikC7b4vI/9htPVq90Vzl0HdC2SLtxtNQTIb/7yzQ/4EI7iz+gAUIBchaCMTYyamz/ds5zH59cuWau5s6zeBk06Baz6r18rYq9XpG0Rn9plnM5jQSSWfQtnFE6f2mqy4K6uLRo/OvS9NM3HDyftEOCALQwslXA7BSOPEUA2mhKepJMYRTpjV4wV8ioSbtka7JwN4lUH6Pb7ob7LT1fuZiDsBmFzYCliJ+NTIBEMFwYSzaV6ExfMElgmxEsfibgdKp/Kgg18cCQVreEI2fF6CS/fKt146dG5Rgm0hoYnGM9i0GEeug89V4VZkxOT7UFu57FxufBceSHmIehZWRsqxW32Zeje349f3isCLJBmE6lzmdjwISK1Hj15akYJjVUAhxZTC7hKJED7iy5rtMkvyCWr1zGbPcnrcigJjLwC3KZ+1ZS6UXHk4TZxFNPj0yQdmrS+qZC2cLvY5nrHz9VWHSazVWryBle6zZU7faU8wYoyE+eiRD1qGq+MaSoIKXeiwCZn+DxcBONRRWz1hFi3fQxR1SInmwKbEbpYyXNATvIy/DkstgN76XylDlHE3vvU0lLTTYYvE28dp1KIi0vT5AS2OXg5SF24hzuvaaz3ctlTJGmC9en11oOi8HLycim42WslFamVROyUZ3gAf/sp8ktoDcNtimR7TiZDuXYF2g126kfwyCHXg48cIsonEoPXitOk+yUikyob/YODNp2oW35rp/6CfxMuKyrPj5pmGeZM89xs8AqqjiHD40G2944AC1gqPf27L38OoThEXogbfPNKNJGDusIb+172mf/557+SpvELc7rmhGcYi3uTl0XAUtl7/XhbLJCXVRWFwqGh4g7b8FfuJ/xzv0RoIa7qgb0k10AXWclU0DOUIWOniatkvHIszOHb6/pJirCmEuKajwug623i9pGuPLEFJehi71s1iPu9iIg20PDIsClRCsOkyLJMjYzAhZGnQE7y4vLdDZNKysTCI3mmrKLcHrTuc9/19wxyGeRg45ieIlcuxECMgtoIwQGDhHSLE5bfbLhtBmLXzrqrHJQriXjtI9OXQQRlkRkCzovrGwwFyL6Gi5oYhfb2bpsWU+G74bQJouvu378HozFhpScv9wqPc0kfmU1uX2cLO/tYPI/2yuysn3JCk2alGk49AlWtVGHDZGjrwT40QQEAK7nxCOFVfOxhW3tQYd0H2d5LAqzF8WVnUJyw3ka73KB6gsIVkxKc6eh3GSd6urrNrdsPEPjjzKmaCk9wlpidiGFAFPgVWedW/likssHk9DwJR7y7EMlT4WlbBwlQ+h0C7GkUO19kCTB7ubu7H460g6TnVTvfsM2vC5Q/V5WAaRBTqhuXgCuIIhVCe+xoKSG8WzlgcQxHycal6C8RFLcJscW9PmpqJpFLjk147f7m+Z099rDxmbl59wGcEBww/bvPqEYX6MPF8H1rSptaTG6Mzo72DRWEMwPp3pWGtaOz11QcB85h+gRPkDXuCQms5lAfuUTdK2yK8vNt4vemx41mZoUw6Q0KoPUXQb8F/DOz0smfUO61S9R+s7iIdsL0jFhuU/svnJZGCayMzEzrOywDmYPf2HoIkX/e0mIuXjxjUsG9cNsi3hjfXL9peth7bvEBqduSyAZYVFRiyinme9BtA/wHPYzInn+MwAuJGQNkU+rAM2KJ0EIrUnGE6nt5CqgcfAzcYia5ROVzrKCBnVoypU7EYYu+qA+3KdpL1WKft3eSq6LSWvvd30K9KzqstbWTjFjkH52a2qLaCHWPl++FoDogRqkcoL4Vqp0PhxhOa+voMq1tLxBDJe6/auLYxblVVVbYag+vfnE+ZfhSraFtmBSCOuTE/WrDidt40U19Og69kyQICkdklC66g/E8obJyS1s7obtCS8RHxsIFeYFNAAAVZklEQVQDbHlxH9nDImmR6jQjeVbwPQV45BwrKbR+sfJ8cJuIplQQjxqfolLLMAUF4a3dAClc2zjUlavDPTjdvnd7T0k5bMckD4M5jG4rskswHvUjVVRbRyclgfII0ElibFlw6KFZz+XlNaLVSCXZ2EIli2cYFknSxJ7ZeYe9PsIsKmArR7WIrdQqkkI1Jqk1+slNLdfTtOQTnvac2/sKY2vlvsdUgNEYXWObCLHycFSC37b4qHvDAb2HC6sDGub2jz2E/qYYIvzFtYss4FGr93VJpoiU9DtTkxPm2dNm88OPt21dre17evVtKiexLzvHnsKWCm/8JKQYI4/ozTs/cTIrL8HuTWLiH/523SaB5kjY/YYwrpAYtYz3gZJY377/0FZI8Hq7RF9xq09JrC5E18ttMr7lkoi9spIsadvpFjHK1VIJoXTj8BOhFKy18RbZgO0cUPeosKtneG1jo5PmD9e/I0tXr0lnwyuhttZOuk2FSlfAqRw9SqkeHTxhtv22nIfzeCsxMG5lGhP+uAe6PkuH+7CxCZVLP9Z9b8Zd3d8DTrW1tpHH+aU9PAPXzuvY0tISTQ25iJW5Th41ai5sF/HQ+IHKNP/6v/+C6qwbIihj4esNRpIDd9D8/s/Xzd+/vc66O7gU7oGgno+QGa5BCdeVNlIdbzRJVjJe3yYPeGtru/u1p/dHz56b67d/wreZ0maoFIVLwit59Ujl0XC6Cl13ZJnfPA3A40XvNQesOUocPnWy2szOLKCGWDR9fT2WGxOSq0mZb0un339sk43IjzU/16nWYC8I+icNApCLEULx4baCryWcMgoojd2C6SLc9vsbtygjc9ZUVJYH3e38Oa+8CCSnvg8h6unpscTIRfBtb4joSxKyowOX0ePmnXuE6i7axOylZSUhe9MR0NHdR9HTu6YZBJ2fn9vkDIT4mmNVeRmHWZklgNt1JAPLmZpa0iyOsym6ICoSGZ0NrA3TQ+7eb7+7ScWBeaoSnDaF+aFVBwskWWltbTWPEIe7OruNn+xUWi81qTS0IasqjlOEMWe7oez4XaxyI6wuAv9+WyVEhpj9blb/ymOSybjlQ4xOR0wOXmfl2L3YcBaY30PlMwgOOmGvCtmemZk233x3w4wQbnvp3Dn0xaEJwgo+7i2I+bfu3EUKc4hRBOeRBYHSWF673EB4/yzJlZBkNqpYuMRcIbodcMKzjE9ccAZzS03BFSwugWtXrdpK3KlUIeIuZzGWSVhci4lHDSg/Y4Wsb0+4t1sDH9VFlMQ/96c8jOqEHnMgSXLReBQt24FRXcfEBAbCSw31tmjpdv3ou/npOdP49Jm5/eAx1cI7N11VdXgJ5lKv5VOJRKk3FYdw0O29J8ACoMTdOoiw8nz6OfHknqaTXQuoE1mfh7HQP3z8lPDdREr4nLdpD0MBP4tNo6KEXd1YUCG66kMbS/2oqm1j01ObfEZZnFJSsaRysio8WL9LDHvJs25DFJV1XyXhlezGSSjCE0HO/Whr+EOD6VZsVBDKQwS/Jao/TE/NmnTE9Tg5uMt3EsRToMUCHOk4RpbniK73yKc8T3Ibu2uYl+XM2EDSjZ2przXVVcdDDlFw8GWmUwvsONVnexEPIZzASFyG4K2N+eJFD+NiExIVdbKywkiVrIPSXYsVwQnD30uI+FOkk/bODmLyicLiqfLN1HjknJ+PyugyB11ubniGEo1RZFzJcBrxlNGhsN++yRZAjFN6auUv0WGcmlz4WokgifINZ09hdBtAVzrmwFrzZIw69FSGawHXLUU2HkVdIWIXjx1CPsTCFLl3KSfHYP8wsGqzaprJmSlwzqlQzOM5RO1oPP+jZ2fginbuVC34MmOaWpRb263a4QS7yM/8eavKQ5HsCkNhOnh+iARQCnZS9WFlEhO+yztFqiIf3gzHSktR+82ZSeYpAmzxyuOopIo5e7rGVnluR3VwiMnrMNb8ZrDvqH6hjMXLlJkqhHNXVRdJScI5STlaXxXhHMAw/bipyXSz92ZRGcrvWfO1RlCYsurq4zynjgMl1ePI3uxlHwQBFohyczLM1SvnbPKOx4h2o4jmbtMiifN4gdFqaWWdUz3T1FVX2NzD7jWB7ypKeaauxhLbnl5Hr6zf1Y/aBPlLZSy69bDJZJD/VJsmEf9YOdfLCjyNvtdtQpJ03Gx4rJkFgWJQG8AruD9H8E5H6LRjSdepkjvafJBaWxpeuVVv3r2PgaHYVhJOStShsIpXwZx5SamfcQ4G+Y1qHtKJgZn2+dooSfislhSWUKWhxiYL321g5RXHzC/Xr5n/MfUniMPA5uWar9rgy34zTN2xf/zwD/w4U3ll2vIvS2zMKTbKOImUJsbHLRHSeER4NRp30+Yglp6sPWEuQIDFWUfSpHdtbG6O5FZP94gA6XWK8k6Z5DEuLc4Xkmy5V54kR48WUNeuAu5ulBp1Q3bO9pAA/vEb3iy/H/wzHLTyBGcB/wybZEfC+BSeAEO9WPFRf/mX8cIBSIfhMvUhRjigAx09biSt6mQZxW6TCfFGdQTHK/2rmsamwzKJl9oSAT+jE1sliEAd/wpjKC4pomju5+b+g0bzmPSh4TY983MKnKoOXO/gKAeSgkIcg5xwag3DpaTJrr4uSzyzMrKpjCxPnXhbm3BumvJawGgSBumQjLg0N1ug1kgHSSYulFevnEciORPu8N7Y9R8MARaE0jCe/ebn1+BCjLlx67bVHwlBtbnVFFMwQYL3v6GXVdqCC+dOw2lp229tPjbTJRaps7fX9KJr0wmv01hIoqZTeQ3it8apO4mz+Nw8Li5wLOI05ZdpuS2ulQdEeqrPfPnLX5gxyoh/+/0NexJvdLP1oR7/0lhSECGPHS3mMFkhuTa5cscczkrjk3N+X18fouEIFnINFk4Q5LW+kHBSEsN0nV5CTPWXAMdVc6Kccf4cL4bQ6pnAIYorqsLH+qsvPrPitQwoMi650oK4kuX1JbMyT8WTFb8Zg+C6HPAyXJ3gpJfGIaKrd/dvH65SVy9fMJ9cOhcx8XXHqjm6RN39br/exVXJaKnXbs+QiiEpPpn81tetKkIGL0lO4tV1r7jh6dlJchPMU5Ydl0UWj6UDlyRJ+G3YufX+5lqp11LRjR87VgqXN4NarNPCL5J5HWG9/+Xrf2MeNzZbnXQnRRD84LQiz+TSybLYg1pjYaD2Ec54mTP/JaJ2uXbpkrl66YKtb9fc3AJeOdfZi91/tvnK/cl9F5FsqK8xCh7823c/WOPyIfadi1MWX4HH7Ooc0t4ShQTGLDPhfL9iK5QoYZTs7GIw9EjBVekLVDvxN7/+JSW8KtzHvRPvb4UAC1G10UWYLKICHBu5BrC2Xaw9gCY710cRv3qI4hwI9cR6LsSyCS0mIbL7sfy2IoanpvhsLmHr0RDkBiT9UwYK+nNnTllRqhMxUTHuGqu4MRELixiMk5mxaZiX38Ew4ah+l8I/LysHUb3KitGNFFFcgwCuQPn52TbBQwgi+IRq7iaXKKp+ReSF+Dok8vMLsGT7zcNHjyHwYxAwp6L0AnOUftdpIrYOQlqkhEgKYVeYiziEIznplDYqMhc4cCory0INY9vv0znwGk7XcuCtmwTCB6UKUWFVEVLL1W5MdBF9rp+5OxvYGY/momtc4gPUrH6uAPFSVZLPA/sc9I9emt2AdqMRGSiR4G01u26h1y5wGMlIVfVIVZNwavL26O2jWCfBDwocsvpOqcpgFpQQZ96GBOtup2/BSp80syRsGCXFxQQYlRFIkGbVN9KTam0FBxlR5Upo95m62KXFsm5FxUeweaBqgJjKdW4E75oZ8Ec5HRQYIxzVgapxCP8TwG3NR94y8r65fOG8LU+vRzmE73WYiJne4IN2HFEufrmXz2v/Lpim561E1w2hY5515kYH8kbS3GTkXfSj5tjoTWPjf7sv9fsS9EaqP19GpikgPL6OWICzqNfSCGt+l9pbIcDijGQwkrjgIoY2n8SzSMXLnYB4HPFYFU8HUUMs9UAcN4iXvWdjxkpt6ec0LaB8ejFcgAhqcLvUcNrkUjTx9yt/xd0LnRJIobm4c9D14mDEccv3RkigTSAORQmGrpxvQKz6xCSlYZzhWFdeXV0f6BoluAgWFnuCB6BuA2AneAnBhVh47pramhrEsAyLhI2Njaghhuxv2rihaLqYYvssoo5y0K3KGnz18kVbIn2bx+/6lS8j1Xx6qcEcQ2f+7Q830DF3Wm5X41QLhFVwZ5awMFAHF+IhvFWkJj3DBjzFd6+vR/D9+tshCuAWMBd+ucbX7a7d7+80N4fowSl6GG8yYcBf/eqaPTjv3HtonnIoz5PLV8nUNdv115LkOCMOxKuS4gLz+ScXEaPPYWx6jg6+w85dMNRYBAcZSl34e51zDoE3165dNueBfU/PSwxfPaZzoM/m3PZL9wohFnFXsqVsXBGPkaFQroqVZDMMDEzSGDapop2TMwKllQR9PbV0vBR++9Wv8XAqMTdu3zadrR02d69rR9kNp/QQ5YxJw/vkJKrGn3163pyoKvf07Ld9kUeQ7G1YRwkJXka0GEdstoQBbBNSabOUlhTvrfMQd+dAAH/3m68Qz3pQOxCdIyIX0KRrSqX+nDjHDPRgKgK6XSvB3epf/t3XlgC/oK+BvgEI+6g1DCgd4BKqDImLqfhXZqRnYV09Ysop661qroVULU6ib7VcfEI/uXpBdjNLhPWduNkSrslH76fcvMFNCH/kSD562VNwGkcgro5BMYHDpQBLri89Gf/mRPOrL66YGgxn3T29pqvnBaXcR6mzNY1xjGxZzFN5A5KpPya9nUrAlxTmYzg6iq443xTgpZCVkRH86LD+VkKVIgxI//TbL80Zgjt6+1+aId6HyC0whp53YWGVEu5w/3BmaDs4iKjogc45OzPb5MLlFuEHe5wy4ioSKq7KK/HVIKUKOVFWbtLiEyzHFrzOYU0kzIuFy9JTFmKEy4UTdFVdO3YD7ldXHUPXm24unDlhOlkzccMjRMZNzZBJDG8WSVRxkiosp4mNAS5OFbDLkFTKy4pMEet3OOmwyYGzq0H/LDc3nXciTEqgJFyRUSvcpj2ZgnGqHE8aqSbO+muRZlC1sW6S/pzDDsYJpiEZ46LqvwUSXz1PBVv1etUcHlWMhvDZa5ODQm11OR4wPvBoiH03hGqN1yhSFpKDDLzyNpJ0Gy8mRRw8EpkqKR9hPylGoKS4yNp7siMIrfY6zr1eF8OiORDaa0873D+NnnIaQ9ACiPWKAkO4WHC57+TkhHZV2qHbXX9aRgc7hvFpCqutDcAQm+E2O224LyhCHpxgGgEYOzWJ+oMQlcGBQTOMsl/imRI66xkiwMnkY/ClZdggBXEpeUGLrlj7IbwzYsXl6KU3kFphvzLiJcmFKYgIC+mnca+b4V7pdsVlablEiGVd91E1NgnjopoYj1EOmp6+Hp4zxpxn8dQQAXY4TLkHJUCA9SyF9RYWYHHP3P7Q2QkOu/3GkK0IOwpBGRkZsQZLvx8vDNZ+BXEb2stGRIyFcGaRJ0HEPx+xs6joyG5db/u7ROQJCogqM5hEcRGJt9Y2to4So6ejEkpjLcN6PsS7T8QFy/04+sxpPEHmSXgv3b7UOvIsSaJiiQisRH0dnBlIHGratDMYM2dQaczjJeA24ZBydvjgUqVSeNvtP//X/2Z+vH3XEmk9W+oLMVrnkSY/Ra9fV1Md9pB0AIwOjwOnYTM4PmKZn0UIsA4qubyJAB/CKyTZwiod1VUGBULzieh7M3Ql7AnscMNbIcA7PD/6UxQCUQi8ZQjoEHdsL0G8F4eXmKKwDpHAscNf/cf/9F9sNsLUDYZGtgvZQ659csVcQVV1nICpaHsFAe8ywat7op+iEIhC4D2FgCSU4bEpc+fefSvFyY9XZFgG4Qy4+Iun6uAcM3BzdFzQvE5T1VWGUTf58e4IDPeXikZSb1ZWNtx7+GoRr89/X6+LEuD3deWi445CIAIIyFYoYvu8tR03rxGbn0Qc7yKqHEWAZsG51iRWY8Aij3EYTT7EjwlQUo4L6XvdJuIeg4pOasZMAniibSsEogR4Kzyif0Uh8MFDIAWDLH4SZgG7jBLDy4NC5a1Wce169OyZycIjIlwCPERI808/PSTacnLTE8XaKyDGSuyfnZ3Gcz540IY9wShIwgZZ9IYoBN5vCMhdT0EcmSSeUhCJVAQKJFrAA6OxuYP8HIRHE+DhtXV09pOP5CFG6pc2NF4EXc2qNdLSTF1VNV5COxu5vT7rQ7suygF/aCsanU8UArtAQHrf2srjpr+3x3rNxMU4/uXW62ZqBlXCc+usdLS0yPqZy6tCaoXD+J/rhwUCbRbxQFggU9rk6IR5SMpHJQhyyizp4Y4nCs4LqDVyzPnT9USEhqfS2GUKH8zPUQL8wSxldCJRCHiDgAhwZVmxaSFV5rPONlQPBCthRJP/dQLMawuRn11UcFF1k/LSEtwE86xrW5pcHvF3HCMybWp6AZfMEdNJ4M3E9DgugE4UpkYg1YP0ymkQ3VL8zWtPVptDCa/0wt5G+XFcFSXAH8c6R2cZhcArCMCgxhPIcf78WbOGuuBbCtzO+MkcZivKKMyeAHvKbw2QRW5seMRmPJNa4RBJFqzHBL69Si2g6DglhV9VUqgNtYOIr/TJcbHx5sonDebSZfJ5RInvK9gHfYoS4CCARP+MQuBjgYCi686fWTeTw5M2JeUI2doOKdMe3KtCNv3ka57fyIECX2vVEoKNuFtdIqIbSHgVhqwYo2zySdRWVpuLF87YRPofCzwjmWc0ECMSqEXviULgA4GAItWU++G7mzfNA/KJSB2hElE2CRTcrGV5nX+2nbFDjJ3ESorQTEhOID1nrfnNL35BBjL8iT3kyNi244/kyygB/kgWOjrNKARCQUD5HhTSrJDoptZWChH0kdluxCZVWkO3S5qfjeg42FvbxA1DnGGD5VGRSV7e4sICU0GCnuqKclt7Ua5nbyLRVqg5vK/fRwnw+7py0XFHIbDPEFgncVP34AApIEfJrzFNbop5PB1ISUlie6kXVtaVy4VcHrFkniO4QikslcNExrZskp0rx0iB8km7dHqfx/chdhclwB/iqkbnFIXAPkFApaVmSAi1TPXsJcoBKRf14UMJJkXZx6gCoyQ40RY5BKIEOHLYRe+MQuCjgID8g6Vy0H/6X3pfm7Qnqt/d8/pHCfCeQRjtIAqBKASiEIgMAtFQ5MjgFr0rCoEoBKIQ2DMEogR4zyCMdhCFQBQCUQhEBoEoAY4MbtG7ohCIQiAKgT1DIEqA9wzCaAdRCEQhEIVAFAJRCEQhEIVAFALvFQT+P0YmCh4B/BIvAAAAAElFTkSuQmCC;" vertex="1" parent="1">
          <mxGeometry x="521" y="471" width="78" height="68.25" as="geometry" />
        </mxCell>
        <mxCell id="f1L2penVRJWSfhdc41cq-19" style="edgeStyle=orthogonalEdgeStyle;rounded=0;orthogonalLoop=1;jettySize=auto;html=1;entryX=0.75;entryY=1;entryDx=0;entryDy=0;startArrow=classic;startFill=1;" edge="1" parent="1" source="f1L2penVRJWSfhdc41cq-18" target="f1L2penVRJWSfhdc41cq-15">
          <mxGeometry relative="1" as="geometry">
            <mxPoint x="486" y="410" as="sourcePoint" />
            <mxPoint x="510" y="410" as="targetPoint" />
          </mxGeometry>
        </mxCell>
        <mxCell id="f1L2penVRJWSfhdc41cq-20" value="实现部署" style="edgeLabel;html=1;align=center;verticalAlign=middle;resizable=0;points=[];" vertex="1" connectable="0" parent="f1L2penVRJWSfhdc41cq-19">
          <mxGeometry x="-0.1286" relative="1" as="geometry">
            <mxPoint as="offset" />
          </mxGeometry>
        </mxCell>
      </root>
    </mxGraphModel>
  </diagram>
</mxfile>
